<svg width="42" height="39" viewBox="0 0 42 39" fill="none" xmlns="http://www.w3.org/2000/svg">
<path d="M7.95636 36.2143C7.95636 36.5801 8.0243 36.9424 8.15631 37.2803C8.28832 37.6183 8.4818 37.9254 8.72571 38.1841C8.96963 38.4428 9.2592 38.648 9.57789 38.788C9.89657 38.9279 10.2381 39 10.5831 39C11.2797 39 11.9479 38.7065 12.4405 38.1841C12.6844 37.9254 12.8779 37.6183 13.0099 37.2803C13.1419 36.9424 13.2098 36.5801 13.2098 36.2143C13.2098 35.4755 12.9331 34.7669 12.4405 34.2445C11.9479 33.7221 11.2797 33.4286 10.5831 33.4286C9.88644 33.4286 9.21832 33.7221 8.72571 34.2445C8.23311 34.7669 7.95636 35.4755 7.95636 36.2143ZM31.5969 36.2143C31.5969 36.5801 31.6649 36.9424 31.7969 37.2803C31.9289 37.6183 32.1224 37.9254 32.3663 38.1841C32.6102 38.4428 32.8998 38.648 33.2184 38.788C33.5371 38.9279 33.8787 39 34.2237 39C34.9203 39 35.5884 38.7065 36.081 38.1841C36.3249 37.9254 36.5184 37.6183 36.6504 37.2803C36.7824 36.9424 36.8504 36.5801 36.8504 36.2143C36.8504 35.4755 36.5736 34.7669 36.081 34.2445C35.5884 33.7221 34.9203 33.4286 34.2237 33.4286C33.527 33.4286 32.8589 33.7221 32.3663 34.2445C31.8737 34.7669 31.5969 35.4755 31.5969 36.2143ZM0 1.39286C0 1.76227 0.138372 2.11654 0.384676 2.37776C0.630979 2.63897 0.965039 2.78571 1.31336 2.78571H4.04254L5.67373 10.1846L7.95636 22.2857C7.95636 22.386 8.00102 22.4724 8.01152 22.5699L6.67452 28.9491C6.6313 29.1527 6.63189 29.364 6.67626 29.5673C6.72062 29.7706 6.80762 29.9607 6.93078 30.1234C7.05395 30.2862 7.21011 30.4174 7.38766 30.5073C7.56522 30.5972 7.7596 30.6436 7.95636 30.6429H37.754C38.1023 30.6429 38.4364 30.4961 38.6827 30.2349C38.929 29.9737 39.0673 29.6194 39.0673 29.25C39.0673 28.8806 38.929 28.5263 38.6827 28.2651C38.4364 28.0039 38.1023 27.8571 37.754 27.8571H9.59544L10.197 24.9879C10.3283 25.0101 10.4465 25.0714 10.5831 25.0714H34.5257C35.9757 25.0714 36.8504 24.7678 37.5491 22.9821L41.8149 9.10371C42.5556 6.61607 40.9297 5.57143 39.4771 5.57143H7.95636C7.75148 5.57143 7.57286 5.64664 7.38111 5.694L6.36194 1.07529C6.29437 0.769284 6.13121 0.49651 5.89897 0.301294C5.66673 0.106077 5.37906 -0.000106415 5.08272 8.00273e-08H1.31336C0.965039 8.00273e-08 0.630979 0.146747 0.384676 0.407959C0.138372 0.66917 0 1.02345 0 1.39286ZM8.0089 8.35714H39.2801L35.0878 22.0044C35.0379 22.1241 34.9959 22.2105 34.9644 22.269C34.8777 22.2774 34.7411 22.2857 34.5257 22.2857H10.5831V22.0099L10.5332 21.7397L8.0089 8.35714Z" fill="#333333"/>
</svg>
