<svg width="57" height="57" viewBox="0 0 57 57" fill="none" xmlns="http://www.w3.org/2000/svg">
<path d="M28.2312 48.3963C17.7044 48.3963 9.1416 39.8334 9.1416 29.3067C9.1416 18.7799 17.7044 10.217 28.2312 10.217C38.758 10.217 47.3208 18.7799 47.3208 29.3067C47.3208 39.8334 38.7565 48.3963 28.2312 48.3963ZM28.2312 13.2714C19.3889 13.2714 12.1959 20.4644 12.1959 29.3067C12.1959 38.149 19.3889 45.3419 28.2312 45.3419C37.0735 45.3419 44.2665 38.149 44.2665 29.3067C44.2665 20.4644 37.072 13.2714 28.2312 13.2714ZM28.1091 30.7117H18.3046C17.8996 30.7117 17.5111 30.5508 17.2247 30.2644C16.9383 29.978 16.7775 29.5895 16.7775 29.1845C16.7775 28.7795 16.9383 28.391 17.2247 28.1046C17.5111 27.8182 17.8996 27.6573 18.3046 27.6573H26.5819V16.3257C26.5819 15.9207 26.7428 15.5322 27.0292 15.2458C27.3156 14.9594 27.704 14.7986 28.1091 14.7986C28.5141 14.7986 28.9025 14.9594 29.1889 15.2458C29.4753 15.5322 29.6362 15.9207 29.6362 16.3257V29.1845C29.6362 29.5895 29.4753 29.978 29.1889 30.2644C28.9025 30.5508 28.5141 30.7117 28.1091 30.7117Z" fill="#6A398E"/>
<rect x="1.5" y="1.5" width="54" height="54" rx="8.5" stroke="#6A398E" stroke-width="3"/>
</svg>
