<svg width="37" height="28" viewBox="0 0 37 28" fill="none" xmlns="http://www.w3.org/2000/svg">
<path d="M0 3.29255V2.35384C0 1.74718 0.238638 1.16536 0.663416 0.736381C1.08819 0.307403 1.66432 0.0664063 2.26504 0.0664063L33.9757 0.0664062C34.5764 0.0664063 35.1525 0.307403 35.5773 0.736381C36.0021 1.16536 36.2407 1.74718 36.2407 2.35384V3.29255L18.1204 14.7297L0 3.29255ZM18.7206 17.0486C18.5405 17.1621 18.3326 17.2223 18.1204 17.2223C17.9081 17.2223 17.7002 17.1621 17.5201 17.0486L0 5.99001V25.2282C0 25.8349 0.238638 26.4167 0.663416 26.8457C1.08819 27.2746 1.66432 27.5156 2.26504 27.5156H33.9757C34.5764 27.5156 35.1525 27.2746 35.5773 26.8457C36.0021 26.4167 36.2407 25.8349 36.2407 25.2282V5.99001L18.7206 17.0486Z" fill="white"/>
</svg>
