<svg width="26" height="20" viewBox="0 0 26 20" fill="none" xmlns="http://www.w3.org/2000/svg">
<path d="M0 2.35063V1.66667C0 1.22464 0.171205 0.800716 0.475951 0.488155C0.780698 0.175595 1.19402 0 1.625 0L24.375 0C24.806 0 25.2193 0.175595 25.524 0.488155C25.8288 0.800716 26 1.22464 26 1.66667V2.35063L13 10.684L0 2.35063ZM13.4306 12.3735C13.3015 12.4562 13.1523 12.5001 13 12.5001C12.8477 12.5001 12.6985 12.4562 12.5694 12.3735L0 4.31604V18.3333C0 18.7754 0.171205 19.1993 0.475951 19.5118C0.780698 19.8244 1.19402 20 1.625 20H24.375C24.806 20 25.2193 19.8244 25.524 19.5118C25.8288 19.1993 26 18.7754 26 18.3333V4.31604L13.4306 12.3735Z" fill="#6C6C6C"/>
</svg>
