<svg width="34" height="33" viewBox="0 0 34 33" fill="none" xmlns="http://www.w3.org/2000/svg">
<g clip-path="url(#clip0_16_2643)">
<path d="M9.03485 32.2088C7.78461 32.1949 6.54613 31.9656 5.37377 31.531C4.51766 31.2145 3.7431 30.7108 3.10671 30.0565C2.45066 29.4214 1.94614 28.6466 1.63061 27.7897C1.19639 26.6174 0.967413 25.379 0.953728 24.129C0.857709 22.0508 0.838379 21.4275 0.838379 16.1616C0.838379 10.8958 0.859611 10.2747 0.952778 8.19489C0.968123 6.9453 1.19738 5.70758 1.63061 4.53539C1.94768 3.67914 2.45149 2.90427 3.10544 2.26706C3.74105 1.61161 4.51597 1.10755 5.37282 0.792236C6.54518 0.357652 7.78366 0.128351 9.0339 0.114399C11.1127 0.0193306 11.737 0 17 0C22.263 0 22.8869 0.0212319 24.9667 0.114399C26.2166 0.129635 27.4547 0.358897 28.6272 0.792236C29.4836 1.10797 30.2584 1.61185 30.8942 2.26675C31.5493 2.90283 32.0534 3.67775 32.3694 4.53444C32.8041 5.70678 33.0335 6.94527 33.0475 8.19552C33.1426 10.2753 33.1619 10.898 33.1619 16.1622C33.1619 21.4265 33.1426 22.0492 33.0475 24.129C33.0324 25.379 32.8031 26.6172 32.3694 27.7897C32.0413 28.64 31.5389 29.4122 30.8943 30.0565C30.2498 30.7009 29.4775 31.2032 28.6272 31.531C27.4548 31.9657 26.2163 32.1951 24.9661 32.2091C22.8882 32.3042 22.2636 32.3235 16.9994 32.3235C11.7351 32.3235 11.1124 32.3052 9.03454 32.2091" fill="url(#paint0_radial_16_2643)"/>
<path d="M9.03485 32.2088C7.78461 32.1949 6.54613 31.9656 5.37377 31.531C4.51766 31.2145 3.7431 30.7108 3.10671 30.0565C2.45066 29.4214 1.94614 28.6466 1.63061 27.7897C1.19639 26.6174 0.967413 25.379 0.953728 24.129C0.857709 22.0508 0.838379 21.4275 0.838379 16.1616C0.838379 10.8958 0.859611 10.2747 0.952778 8.19489C0.968123 6.9453 1.19738 5.70758 1.63061 4.53539C1.94768 3.67914 2.45149 2.90427 3.10544 2.26706C3.74105 1.61161 4.51597 1.10755 5.37282 0.792236C6.54518 0.357652 7.78366 0.128351 9.0339 0.114399C11.1127 0.0193306 11.737 0 17 0C22.263 0 22.8869 0.0212319 24.9667 0.114399C26.2166 0.129635 27.4547 0.358897 28.6272 0.792236C29.4836 1.10797 30.2584 1.61185 30.8942 2.26675C31.5493 2.90283 32.0534 3.67775 32.3694 4.53444C32.8041 5.70678 33.0335 6.94527 33.0475 8.19552C33.1426 10.2753 33.1619 10.898 33.1619 16.1622C33.1619 21.4265 33.1426 22.0492 33.0475 24.129C33.0324 25.379 32.8031 26.6172 32.3694 27.7897C32.0413 28.64 31.5389 29.4122 30.8943 30.0565C30.2498 30.7009 29.4775 31.2032 28.6272 31.531C27.4548 31.9657 26.2163 32.1951 24.9661 32.2091C22.8882 32.3042 22.2636 32.3235 16.9994 32.3235C11.7351 32.3235 11.1124 32.3052 9.03454 32.2091" fill="#6C6C6C"/>
<path d="M13.0314 16.2303C13.0315 15.4387 13.2663 14.6648 13.7062 14.0066C14.1461 13.3484 14.7713 12.8354 15.5027 12.5325C16.2341 12.2296 17.039 12.1504 17.8154 12.305C18.5919 12.4595 19.305 12.8408 19.8648 13.4007C20.4245 13.9605 20.8056 14.6738 20.96 15.4503C21.1143 16.2268 21.035 17.0316 20.7319 17.7629C20.4288 18.4943 19.9157 19.1194 19.2574 19.5591C18.5991 19.9988 17.8251 20.2335 17.0335 20.2334C15.9719 20.2332 14.954 19.8114 14.2034 19.0607C13.4529 18.31 13.0313 17.2919 13.0314 16.2303ZM10.8673 16.2303C10.8673 17.4499 11.229 18.6421 11.9065 19.6561C12.5841 20.6701 13.5471 21.4604 14.6738 21.9271C15.8005 22.3938 17.0403 22.5159 18.2364 22.278C19.4325 22.0401 20.5312 21.4528 21.3936 20.5905C22.2559 19.7281 22.8432 18.6294 23.0811 17.4333C23.319 16.2372 23.1969 14.9974 22.7302 13.8707C22.2635 12.744 21.4732 11.7809 20.4592 11.1034C19.4452 10.4258 18.253 10.0642 17.0335 10.0642C16.2237 10.0642 15.4219 10.2236 14.6737 10.5335C13.9256 10.8434 13.2458 11.2975 12.6733 11.8701C12.1007 12.4427 11.6465 13.1225 11.3366 13.8706C11.0268 14.6187 10.8673 15.4206 10.8673 16.2303ZM22.0027 9.81989C22.0026 10.1049 22.087 10.3835 22.2452 10.6205C22.4034 10.8576 22.6284 11.0423 22.8916 11.1515C23.1549 11.2607 23.4446 11.2894 23.7241 11.2339C24.0036 11.1784 24.2604 11.0413 24.462 10.8399C24.6637 10.6384 24.801 10.3817 24.8567 10.1023C24.9124 9.82277 24.884 9.53303 24.7751 9.26969C24.6661 9.00635 24.4816 8.78123 24.2447 8.6228C24.0078 8.46436 23.7292 8.37973 23.4442 8.37961C23.0622 8.37977 22.6959 8.53155 22.4258 8.8016C22.1556 9.07165 22.0037 9.43789 22.0033 9.81989M12.1828 26.005C11.4213 25.9966 10.667 25.8572 9.95278 25.593C9.43484 25.3934 8.96444 25.0875 8.57186 24.6951C8.17927 24.3026 7.87321 23.8324 7.67336 23.3145C7.40899 22.6004 7.26964 21.846 7.2614 21.0845C7.20309 19.8189 7.19168 19.4386 7.19168 16.2319C7.19168 13.0253 7.20436 12.646 7.2614 11.379C7.27064 10.6176 7.40996 9.86344 7.67336 9.14902C7.87298 8.63092 8.17895 8.1604 8.57156 7.7678C8.96416 7.37519 9.43468 7.06922 9.95278 6.8696C10.6669 6.60524 11.4213 6.46589 12.1828 6.45764C13.4484 6.39933 13.8287 6.38792 17.0341 6.38792C20.2395 6.38792 20.6201 6.40028 21.887 6.45796C22.6484 6.4672 23.4026 6.60652 24.117 6.86992C24.6351 7.06956 25.1056 7.37554 25.4982 7.76814C25.8908 8.16074 26.1968 8.63125 26.3964 9.14934C26.6608 9.8635 26.8001 10.6179 26.8084 11.3793C26.8667 12.6469 26.8781 13.0253 26.8781 16.2322C26.8781 19.4392 26.8664 19.8182 26.8084 21.0852C26.7995 21.8466 26.6602 22.6008 26.3964 23.3152C26.1966 23.833 25.8905 24.3033 25.4979 24.6957C25.1053 25.0881 24.635 25.394 24.117 25.5936C23.4029 25.858 22.6485 25.9973 21.887 26.0056C20.6213 26.0639 20.2411 26.0753 17.0341 26.0753C13.8271 26.0753 13.4481 26.0636 12.1828 26.0056M12.0833 4.29547C11.0869 4.31506 10.1011 4.50364 9.16783 4.8532C8.37005 5.16165 7.64553 5.63342 7.04072 6.23823C6.43591 6.84304 5.96414 7.56756 5.65569 8.36534C5.30618 9.2986 5.1176 10.2844 5.09796 11.2808C5.0387 12.561 5.02539 12.9705 5.02539 16.2316C5.02539 19.4928 5.03902 19.9019 5.09796 21.1825C5.11759 22.1788 5.30618 23.1646 5.65569 24.0979C5.96416 24.8957 6.43593 25.6202 7.04074 26.225C7.64555 26.8298 8.37006 27.3015 9.16783 27.61C10.1011 27.9594 11.0869 28.148 12.0833 28.1678C13.3642 28.2261 13.7729 28.2403 17.0341 28.2403C20.2953 28.2403 20.7044 28.2267 21.9849 28.1678C22.9813 28.1481 23.9671 27.9595 24.9004 27.61C25.6981 27.3015 26.4227 26.8298 27.0275 26.225C27.6323 25.6202 28.104 24.8957 28.4125 24.0979C28.7625 23.1648 28.9511 22.1789 28.9703 21.1825C29.0286 19.9013 29.0419 19.4928 29.0419 16.2316C29.0419 12.9705 29.0282 12.5613 28.9703 11.2808C28.9507 10.2844 28.7621 9.29859 28.4125 8.36534C28.1041 7.56771 27.6324 6.8433 27.0278 6.23851C26.4232 5.63371 25.6989 5.16187 24.9013 4.8532C23.9681 4.50342 22.9823 4.31483 21.9859 4.29547C20.7053 4.23684 20.2962 4.2229 17.0357 4.2229C13.7752 4.2229 13.3651 4.23653 12.0839 4.29547" fill="white"/>
</g>
<defs>
<radialGradient id="paint0_radial_16_2643" cx="0" cy="0" r="1" gradientUnits="userSpaceOnUse" gradientTransform="translate(2.9302 31.6153) scale(41.0385)">
<stop offset="0.09" stop-color="#FA8F21"/>
<stop offset="0.78" stop-color="#D82D7E"/>
</radialGradient>
<clipPath id="clip0_16_2643">
<rect width="32.3232" height="32.3232" fill="white" transform="translate(0.838379)"/>
</clipPath>
</defs>
</svg>
