<svg width="51" height="51" viewBox="0 0 51 51" fill="none" xmlns="http://www.w3.org/2000/svg">
<path d="M25.6681 19.1128C24.4337 19.1128 23.227 19.4825 22.2006 20.1751C21.1742 20.8677 20.3742 21.8521 19.9018 23.0038C19.4294 24.1556 19.3058 25.423 19.5466 26.6456C19.7874 27.8683 20.3819 28.9915 21.2548 29.873C22.1276 30.7545 23.2398 31.3548 24.4505 31.598C25.6612 31.8412 26.9162 31.7164 28.0566 31.2393C29.1971 30.7622 30.1719 29.9544 30.8577 28.9178C31.5435 27.8813 31.9096 26.6626 31.9096 25.416C31.9096 24.5882 31.7481 23.7686 31.4345 23.0038C31.1208 22.2391 30.6611 21.5443 30.0815 20.959C29.5019 20.3737 28.8139 19.9094 28.0566 19.5926C27.2994 19.2758 26.4878 19.1128 25.6681 19.1128ZM50.6591 12.8859C50.6459 10.9232 50.288 8.97837 49.6021 7.14188C49.0969 5.79804 48.3154 4.57765 47.3089 3.56125C46.3024 2.54484 45.094 1.75552 43.7633 1.24538C41.9448 0.552705 40.0191 0.191283 38.0755 0.177912C34.829 -1.70427e-07 33.8726 0 25.6681 0C17.4636 0 16.5073 -1.70427e-07 13.2607 0.177912C11.3172 0.191283 9.39145 0.552705 7.57295 1.24538C6.24226 1.75552 5.03382 2.54484 4.02736 3.56125C3.02091 4.57765 2.23932 5.79804 1.73417 7.14188C1.04827 8.97837 0.690387 10.9232 0.677146 12.8859C0.500976 16.1646 0.500977 17.1304 0.500977 25.416C0.500977 33.7016 0.500976 34.6674 0.677146 37.946C0.704236 39.9157 1.06164 41.8664 1.73417 43.7155C2.23708 45.0531 3.01802 46.2665 4.02438 47.2737C5.02652 48.2962 6.23755 49.0855 7.57295 49.5865C9.39145 50.2792 11.3172 50.6406 13.2607 50.654C16.5073 50.8319 17.4636 50.8319 25.6681 50.8319C33.8726 50.8319 34.829 50.8319 38.0755 50.654C40.0191 50.6406 41.9448 50.2792 43.7633 49.5865C45.0987 49.0855 46.3097 48.2962 47.3119 47.2737C48.3182 46.2665 49.0992 45.0531 49.6021 43.7155C50.2873 41.87 50.6451 39.9169 50.6591 37.946C50.8353 34.6674 50.8353 33.7016 50.8353 25.416C50.8353 17.1304 50.8353 16.1646 50.6591 12.8859ZM44.2667 33.2187C44.1859 34.7871 43.8544 36.332 43.2851 37.7935C42.7966 39.0127 42.0702 40.1202 41.1493 41.0502C40.2284 41.9802 39.1318 42.7137 37.9245 43.2071C36.4636 43.75 34.9253 44.0504 33.3693 44.0967C31.3811 44.0967 30.8526 44.0967 25.6681 44.0967C20.4837 44.0967 19.9552 44.0967 17.967 44.0967C16.411 44.0504 14.8727 43.75 13.4117 43.2071C12.1637 42.7388 11.0366 41.9916 10.1148 41.0214C9.20294 40.1096 8.49871 39.0081 8.05112 37.7935C7.51143 36.3197 7.22213 34.7644 7.19544 33.1932C7.19544 31.1854 7.19544 30.6516 7.19544 25.416C7.19544 20.1803 7.19544 19.6465 7.19544 17.6387C7.22213 16.0675 7.51143 14.5122 8.05112 13.0384C8.51491 11.778 9.2548 10.6398 10.2155 9.7089C11.1224 8.79296 12.2119 8.08251 13.4117 7.62479C14.8727 7.08192 16.411 6.78151 17.967 6.73523C19.9552 6.73523 20.4837 6.73523 25.6681 6.73523C30.8526 6.73523 31.3811 6.73523 33.3693 6.73523C34.9253 6.78151 36.4636 7.08192 37.9245 7.62479C39.1726 8.09316 40.2996 8.84037 41.2214 9.81056C42.1333 10.7224 42.8376 11.8238 43.2851 13.0384C43.8227 14.5138 44.1202 16.0673 44.166 17.6387C44.166 19.6465 44.166 20.1803 44.166 25.416C44.166 30.6516 44.3422 31.1854 44.2667 33.1932V33.2187ZM40.2399 14.3092C39.9403 13.4882 39.4678 12.7427 38.8552 12.124C38.2425 11.5053 37.5043 11.0281 36.6913 10.7255C35.5751 10.3348 34.3995 10.1455 33.2183 10.1664C31.2552 10.1664 30.7016 10.1664 25.6681 10.1664C20.6347 10.1664 20.081 10.1664 18.118 10.1664C16.9308 10.1781 15.755 10.4018 14.6449 10.8272C13.8444 11.1161 13.114 11.5737 12.5021 12.1697C11.8903 12.7656 11.4111 13.4863 11.0963 14.2838C10.7309 15.4157 10.5523 16.6007 10.5678 17.7912C10.5678 19.7736 10.5678 20.3328 10.5678 25.416C10.5678 30.4992 10.5678 31.0583 10.5678 33.0407C10.5928 34.2383 10.8139 35.4235 11.2222 36.5481C11.5218 37.3691 11.9943 38.1147 12.6069 38.7334C13.2196 39.3521 13.9578 39.8292 14.7708 40.1318C15.8446 40.5306 16.9745 40.7537 18.118 40.7926C20.081 40.7926 20.6347 40.7926 25.6681 40.7926C30.7016 40.7926 31.2552 40.7926 33.2183 40.7926C34.4055 40.7809 35.5813 40.5572 36.6913 40.1318C37.5043 39.8292 38.2425 39.3521 38.8552 38.7334C39.4678 38.1147 39.9403 37.3691 40.2399 36.5481C40.6611 35.4271 40.8827 34.2397 40.8943 33.0407C40.8943 31.0583 40.8943 30.4992 40.8943 25.416C40.8943 20.3328 40.8943 19.7736 40.8943 17.7912C40.895 16.591 40.673 15.4014 40.2399 14.2838V14.3092ZM25.6681 35.1249C24.4068 35.1249 23.1579 34.8736 21.9929 34.3853C20.8279 33.8971 19.7697 33.1815 18.879 32.2796C17.9883 31.3778 17.2825 30.3073 16.8021 29.1295C16.3217 27.9517 16.0761 26.6897 16.0794 25.416C16.0795 23.4946 16.6439 21.6165 17.7014 20.0194C18.7589 18.4222 20.2619 17.1778 22.0201 16.4437C23.7782 15.7096 25.7126 15.5188 27.5781 15.8955C29.4437 16.2722 31.1567 17.1994 32.5002 18.5598C33.8437 19.9201 34.7574 21.6525 35.1255 23.5375C35.4936 25.4225 35.2996 27.3754 34.5681 29.149C33.8366 30.9227 32.6004 32.4372 31.0161 33.501C29.4318 34.5647 27.5706 35.1299 25.6681 35.1249ZM35.735 17.6133C35.1787 17.5538 34.6638 17.2885 34.2896 16.8685C33.9154 16.4485 33.7084 15.9035 33.7084 15.3385C33.7084 14.7736 33.9154 14.2286 34.2896 13.8086C34.6638 13.3886 35.1787 13.1233 35.735 13.0638C36.2913 13.1233 36.8062 13.3886 37.1804 13.8086C37.5546 14.2286 37.7616 14.7736 37.7616 15.3385C37.7616 15.9035 37.5546 16.4485 37.1804 16.8685C36.8062 17.2885 36.2913 17.5538 35.735 17.6133Z" fill="white"/>
</svg>
