<svg width="57" height="57" viewBox="0 0 57 57" fill="none" xmlns="http://www.w3.org/2000/svg">
<path d="M7.51531 29.8316C7.23347 29.8316 6.96317 29.7196 6.76389 29.5203C6.5646 29.3211 6.45264 29.0508 6.45264 28.7689V8.57822C6.4532 8.01472 6.6773 7.47446 7.07575 7.076C7.47421 6.67754 8.01447 6.45344 8.57797 6.45288H27.706C28.2695 6.45344 28.8098 6.67754 29.2082 7.076C29.6067 7.47446 29.8308 8.01472 29.8313 8.57822V23.4556C29.8308 24.0191 29.6067 24.5593 29.2082 24.9578C28.8098 25.3563 28.2695 25.5804 27.706 25.5809H12.2059L8.26661 29.5202C8.16799 29.619 8.05087 29.6973 7.92196 29.7507C7.79304 29.8041 7.65485 29.8316 7.51531 29.8316ZM27.706 8.57609L8.57797 8.57822V26.2036L11.0147 23.7669C11.2139 23.5676 11.4842 23.4556 11.766 23.4556H27.706V8.57609ZM50.022 51.085C49.8825 51.085 49.7443 51.0575 49.6154 51.0041C49.4865 50.9506 49.3694 50.8723 49.2707 50.7736L45.3314 46.8343H29.8313C29.2678 46.8337 28.7276 46.6096 28.3291 46.2112C27.9307 45.8127 27.7066 45.2724 27.706 44.7089V29.8316C27.7066 29.2681 27.9307 28.7278 28.3291 28.3294C28.7276 27.9309 29.2678 27.7068 29.8313 27.7062H48.9594C49.5229 27.7068 50.0631 27.9309 50.4616 28.3294C50.86 28.7278 51.0841 29.2681 51.0847 29.8316V50.0223C51.0847 50.3041 50.9728 50.5744 50.7735 50.7737C50.5742 50.973 50.3039 51.085 50.022 51.085ZM29.8313 29.8316V44.7089H45.7714C46.0532 44.709 46.3234 44.821 46.5227 45.0203L48.9594 47.457V29.8316H29.8313Z" fill="#6A398E"/>
<path d="M14.9522 21.3302C14.6834 21.3299 14.4248 21.2278 14.2283 21.0445C14.0318 20.8612 13.9121 20.6102 13.8932 20.3421C13.8744 20.074 13.9578 19.8088 14.1267 19.5997C14.2955 19.3907 14.5373 19.2534 14.8034 19.2155C16.1843 19.0143 17.464 18.3747 18.4537 17.3909C19.1399 16.7042 19.662 15.8712 19.9807 14.9542H14.9543C14.6725 14.9542 14.4022 14.8422 14.2029 14.6429C14.0036 14.4437 13.8916 14.1734 13.8916 13.8915C13.8916 13.6097 14.0036 13.3394 14.2029 13.1401C14.4022 12.9408 14.6725 12.8289 14.9543 12.8289H21.3303C21.4825 12.8289 21.6329 12.8616 21.7714 12.9247C21.9099 12.9879 22.0332 13.0801 22.1329 13.1951C22.2327 13.3101 22.3066 13.4451 22.3496 13.5911C22.3926 13.7371 22.4038 13.8907 22.3823 14.0414C22.1202 15.8786 21.2692 17.5812 19.957 18.8935C18.6448 20.2059 16.9424 21.0572 15.1052 21.3196C15.0549 21.3267 15.003 21.3303 14.9522 21.3302Z" fill="#6A398E"/>
<path d="M18.1425 14.954C17.8606 14.954 17.5903 14.8421 17.3911 14.6428C17.1918 14.4435 17.0798 14.1732 17.0798 13.8914V11.766C17.0798 11.4842 17.1918 11.2139 17.3911 11.0146C17.5903 10.8153 17.8606 10.7034 18.1425 10.7034C18.4243 10.7034 18.6946 10.8153 18.8939 11.0146C19.0932 11.2139 19.2051 11.4842 19.2051 11.766V13.8914C19.2051 14.1732 19.0932 14.4435 18.8939 14.6428C18.6946 14.8421 18.4243 14.954 18.1425 14.954ZM22.3942 21.3301C22.3666 21.3301 22.3382 21.329 22.3092 21.3269C21.0731 21.2312 19.8762 20.8492 18.8131 20.2113C17.7501 19.5733 16.85 18.6968 16.184 17.6511C16.0324 17.4135 15.9813 17.1254 16.0421 16.8502C16.1029 16.575 16.2705 16.3352 16.5081 16.1836C16.7457 16.0319 17.0338 15.9809 17.309 16.0417C17.5842 16.1025 17.824 16.2701 17.9756 16.5077C18.4645 17.2763 19.1257 17.9205 19.9069 18.389C20.6881 18.8575 21.5678 19.1376 22.476 19.2068C22.7532 19.2238 23.0126 19.3486 23.1989 19.5545C23.3852 19.7604 23.4836 20.031 23.4729 20.3084C23.4622 20.5859 23.3433 20.8481 23.1417 21.0391C22.9401 21.23 22.6718 21.3344 22.3942 21.3301ZM35.1441 42.5834C34.9631 42.5831 34.7852 42.5367 34.6272 42.4484C34.4693 42.36 34.3365 42.2329 34.2414 42.0788C34.1464 41.9248 34.0922 41.7491 34.0841 41.5683C34.076 41.3875 34.1143 41.2076 34.1952 41.0457L38.4458 32.5444C38.5769 32.3013 38.7974 32.1188 39.0607 32.0356C39.324 31.9523 39.6094 31.9748 39.8564 32.0983C40.1034 32.2218 40.2926 32.4366 40.384 32.6972C40.4753 32.9578 40.4617 33.2437 40.3459 33.4944L36.0952 41.9958C36.007 42.1723 35.8714 42.3207 35.7036 42.4245C35.5358 42.5283 35.3414 42.5833 35.1441 42.5834Z" fill="#6A398E"/>
<path d="M43.6474 42.5836C43.4499 42.5837 43.2563 42.5288 43.0883 42.425C42.9203 42.3212 42.7846 42.1726 42.6963 41.996L38.4456 33.4946C38.3298 33.2439 38.3161 32.958 38.4075 32.6974C38.4989 32.4368 38.6881 32.222 38.9351 32.0985C39.1821 31.975 39.4675 31.9525 39.7308 32.0358C39.994 32.1191 40.2146 32.3015 40.3457 32.5446L44.5963 41.046C44.6772 41.2078 44.7154 41.3875 44.7074 41.5683C44.6993 41.749 44.6453 41.9246 44.5503 42.0786C44.4554 42.2326 44.3228 42.3598 44.1649 42.4482C44.0071 42.5366 43.8283 42.5832 43.6474 42.5836Z" fill="#6A398E"/>
<path d="M43.0969 39.3605H35.6943C35.4125 39.3605 35.1422 39.2485 34.9429 39.0492C34.7436 38.8499 34.6316 38.5796 34.6316 38.2978C34.6316 38.016 34.7436 37.7457 34.9429 37.5464C35.1422 37.3471 35.4125 37.2351 35.6943 37.2351H43.0969C43.3787 37.2351 43.649 37.3471 43.8483 37.5464C44.0476 37.7457 44.1595 38.016 44.1595 38.2978C44.1595 38.5796 44.0476 38.8499 43.8483 39.0492C43.649 39.2485 43.3787 39.3605 43.0969 39.3605ZM13.8915 31.9569C13.6814 31.9568 13.476 31.8945 13.3013 31.7777C13.1266 31.6609 12.9904 31.495 12.91 31.3008C12.8296 31.1067 12.8085 30.893 12.8495 30.6869C12.8905 30.4808 12.9917 30.2915 13.1402 30.1429L15.2656 28.0175C15.466 27.824 15.7344 27.7169 16.0131 27.7193C16.2917 27.7217 16.5582 27.8335 16.7552 28.0305C16.9523 28.2275 17.064 28.494 17.0665 28.7727C17.0689 29.0513 16.9618 29.3197 16.7682 29.5202L14.6428 31.6455C14.5443 31.7443 14.4272 31.8227 14.2983 31.8761C14.1693 31.9296 14.0311 31.957 13.8915 31.9569Z" fill="#6A398E"/>
<path d="M18.1417 31.9569C18.0022 31.957 17.864 31.9296 17.735 31.8761C17.6061 31.8227 17.489 31.7443 17.3904 31.6455L15.2651 29.5202C15.0715 29.3197 14.9644 29.0513 14.9668 28.7727C14.9693 28.494 15.081 28.2275 15.278 28.0305C15.4751 27.8335 15.7416 27.7217 16.0202 27.7193C16.2989 27.7169 16.5673 27.824 16.7677 28.0175L18.8931 30.1429C19.0416 30.2915 19.1428 30.4808 19.1838 30.6869C19.2248 30.893 19.2037 31.1067 19.1233 31.3008C19.0429 31.495 18.9067 31.6609 18.732 31.7777C18.5573 31.8945 18.3519 31.9568 18.1417 31.9569Z" fill="#6A398E"/>
<path d="M24.5181 40.4582H17.0794C16.5159 40.4577 15.9757 40.2336 15.5772 39.8351C15.1788 39.4367 14.9547 38.8964 14.9541 38.3329V28.7689C14.9541 28.487 15.0661 28.2168 15.2654 28.0175C15.4646 27.8182 15.7349 27.7062 16.0168 27.7062C16.2986 27.7062 16.5689 27.8182 16.7682 28.0175C16.9675 28.2168 17.0794 28.487 17.0794 28.7689V38.3329H24.5181C24.8 38.3329 25.0702 38.4449 25.2695 38.6441C25.4688 38.8434 25.5808 39.1137 25.5808 39.3956C25.5808 39.6774 25.4688 39.9477 25.2695 40.147C25.0702 40.3463 24.8 40.4582 24.5181 40.4582ZM41.5208 25.5809C41.3107 25.5808 41.1053 25.5185 40.9305 25.4017C40.7558 25.2849 40.6197 25.119 40.5392 24.9248C40.4588 24.7307 40.4378 24.5171 40.4788 24.311C40.5198 24.1048 40.6209 23.9155 40.7695 23.7669L42.8948 21.6416C43.0953 21.448 43.3637 21.3409 43.6423 21.3433C43.921 21.3457 44.1875 21.4575 44.3845 21.6545C44.5815 21.8515 44.6933 22.1181 44.6957 22.3967C44.6981 22.6753 44.591 22.9438 44.3975 23.1442L42.2721 25.2695C42.1736 25.3683 42.0565 25.4467 41.9275 25.5002C41.7986 25.5536 41.6604 25.581 41.5208 25.5809Z" fill="#6A398E"/>
<path d="M41.5207 25.5809C41.3811 25.581 41.2429 25.5536 41.1139 25.5002C40.985 25.4467 40.8679 25.3683 40.7693 25.2695L38.644 23.1442C38.4504 22.9438 38.3433 22.6753 38.3457 22.3967C38.3482 22.1181 38.4599 21.8515 38.657 21.6545C38.854 21.4575 39.1205 21.3457 39.3991 21.3433C39.6778 21.3409 39.9462 21.448 40.1466 21.6416L42.272 23.7669C42.4205 23.9155 42.5217 24.1048 42.5627 24.311C42.6037 24.5171 42.5826 24.7307 42.5022 24.9248C42.4218 25.119 42.2856 25.2849 42.1109 25.4017C41.9362 25.5185 41.7308 25.5808 41.5207 25.5809Z" fill="#6A398E"/>
<path d="M41.521 25.5809C41.2392 25.5809 40.9689 25.4689 40.7696 25.2696C40.5703 25.0703 40.4584 24.8 40.4584 24.5182V14.9542H33.0197C32.7379 14.9542 32.4676 14.8422 32.2683 14.6429C32.069 14.4437 31.957 14.1734 31.957 13.8915C31.957 13.6097 32.069 13.3394 32.2683 13.1401C32.4676 12.9408 32.7379 12.8289 33.0197 12.8289H40.4584C41.0219 12.8294 41.5621 13.0535 41.9606 13.452C42.3591 13.8504 42.5832 14.3907 42.5837 14.9542V24.5182C42.5837 24.8 42.4718 25.0703 42.2725 25.2696C42.0732 25.4689 41.8029 25.5809 41.521 25.5809Z" fill="#6A398E"/>
<rect x="1.5" y="1.5" width="54" height="54" rx="8.5" stroke="#6A398E" stroke-width="3"/>
</svg>
