<svg width="57" height="57" viewBox="0 0 57 57" fill="none" xmlns="http://www.w3.org/2000/svg">
<path d="M12.5367 46.7776C11.781 46.7705 11.0583 46.4672 10.5239 45.9329C9.98954 45.3985 9.68623 44.6758 9.6792 43.9201V23.9503C9.6792 22.3922 10.9839 21.0928 12.5367 21.0928H16.8228C17.8796 21.0928 18.8069 21.7021 19.3029 22.5755C20.2626 21.9824 21.2061 21.6374 21.8153 21.2869C23.2494 20.4567 23.9826 18.1276 24.3223 15.696C24.4894 14.483 24.5811 13.313 24.7321 12.3372C24.8075 11.8519 24.8776 11.4206 25.0771 10.9462C25.2045 10.5863 25.4371 10.2731 25.7447 10.0472C26.0524 9.82122 26.4209 9.69301 26.8024 9.6792C28.9212 9.6792 30.6572 10.5095 31.7625 11.7819C32.8731 13.0488 33.3907 14.6393 33.671 16.2136C34.1239 18.7907 33.9514 20.9742 33.8651 22.5324H42.4914C44.8421 22.5324 46.783 24.4625 46.783 26.8078C46.783 27.638 46.5458 28.2634 46.2438 29.2339C45.9419 30.2097 45.5376 31.3851 45.0847 32.6413C44.1897 35.1537 43.1222 38.0003 42.4213 40.0976C42.1577 40.9999 41.7179 41.8409 41.1274 42.5723C40.7664 42.9907 40.3207 43.3277 39.8197 43.561C39.3187 43.7943 38.774 43.9185 38.2214 43.9255H21.0982C20.612 43.9211 20.1303 43.8317 19.6749 43.6613V43.9309C19.6749 45.4836 18.381 46.783 16.8228 46.783L12.5367 46.7776ZM12.5367 43.9201H16.8228V23.9503H12.5367V43.9201ZM21.0982 41.0681H38.2214C38.5988 41.0681 38.7174 40.9926 38.9654 40.7014C39.3032 40.2422 39.5585 39.7277 39.7202 39.1811C40.4481 36.9975 41.5156 34.1563 42.3997 31.6762C42.8418 30.4362 43.2408 29.2878 43.5158 28.3874C43.7961 27.4925 43.9309 26.6837 43.9309 26.8024C43.9346 26.6135 43.9 26.4259 43.8291 26.2508C43.7582 26.0757 43.6525 25.9168 43.5185 25.7838C43.3844 25.6507 43.2247 25.5462 43.0491 25.4767C42.8735 25.4071 42.6856 25.3739 42.4968 25.379H32.3879C32.1993 25.3797 32.0125 25.3431 31.8382 25.2713C31.6639 25.1995 31.5055 25.0939 31.3722 24.9606C31.2389 24.8273 31.1333 24.6689 31.0615 24.4946C30.9897 24.3202 30.953 24.1334 30.9538 23.9449C30.9538 22.2628 31.3204 19.2544 30.8729 16.6988C30.6464 15.4265 30.2259 14.3536 29.6167 13.6581C29.0898 13.0653 28.3656 12.6841 27.5787 12.5852C27.4332 13.3993 27.3361 14.7903 27.1528 16.0896C26.7808 18.7476 26.0799 22.1118 23.2386 23.7562C22.1765 24.3654 21.1521 24.7267 20.5429 25.1472C19.9283 25.5677 19.6803 25.7942 19.6803 26.8024V39.6339C19.6803 40.4534 20.2841 41.0681 21.0982 41.0681Z" fill="#6A398E"/>
<rect x="1.5" y="1.5" width="54" height="54" rx="8.5" stroke="#6A398E" stroke-width="3"/>
</svg>
