<svg width="33" height="33" viewBox="0 0 33 33" fill="none" xmlns="http://www.w3.org/2000/svg">
<path d="M33 16.1616C33 25.0871 25.7639 32.3232 16.8384 32.3232C7.91283 32.3232 0.676758 25.0871 0.676758 16.1616C0.676758 7.23607 7.91283 0 16.8384 0C25.7639 0 33 7.23607 33 16.1616Z" fill="#6C6C6C"/>
<path d="M26.494 17.4614V24.1249H22.6312V17.9087C22.6312 16.3473 22.0742 15.281 20.6744 15.281C19.6082 15.281 18.9737 15.9999 18.6938 16.6948C18.5911 16.9424 18.5658 17.287 18.5658 17.6359V24.125H14.7016C14.7016 24.125 14.7537 13.5958 14.7016 12.5058H18.5658V14.1529C18.5588 14.1656 18.5476 14.1781 18.5405 14.1907H18.5658V14.1529C19.0793 13.3625 19.995 12.2328 22.0474 12.2328C24.5894 12.2328 26.494 13.8941 26.494 17.4614ZM10.6616 6.90552C9.33926 6.90552 8.47559 7.77346 8.47559 8.91292C8.47559 10.0284 9.31399 10.9201 10.611 10.9201H10.6349C11.9825 10.9201 12.8209 10.0285 12.8209 8.91292C12.7956 7.77353 11.9825 6.90552 10.6616 6.90552ZM8.70489 24.125H12.5663V12.5058H8.70489V24.125Z" fill="#F2F2F2"/>
</svg>
