<svg width="51" height="51" viewBox="0 0 51 51" fill="none" xmlns="http://www.w3.org/2000/svg">
<path d="M27.6769 22.4831H27.7155V22.4219L27.6769 22.4831ZM27.6769 22.4831H27.7155V22.4219L27.6769 22.4831ZM27.6769 22.4831H27.7155V22.4219L27.6769 22.4831ZM27.6769 22.4831H27.7155V22.4219L27.6769 22.4831ZM27.6769 22.4831H27.7155V22.4219L27.6769 22.4831ZM27.6769 22.4831H27.7155V22.4219L27.6769 22.4831ZM27.6769 22.4831H27.7155V22.4219L27.6769 22.4831ZM27.6769 22.4831H27.7155V22.4219L27.6769 22.4831ZM27.6769 22.4831H27.7155V22.4219L27.6769 22.4831ZM27.6769 22.4831H27.7155V22.4219L27.6769 22.4831ZM27.6769 22.4831H27.7155V22.4219L27.6769 22.4831ZM27.6769 22.4831H27.7155V22.4219L27.6769 22.4831ZM27.6769 22.4831H27.7155V22.4219L27.6769 22.4831ZM27.6769 22.4831H27.7155V22.4219L27.6769 22.4831ZM27.6769 22.4831H27.7155V22.4219L27.6769 22.4831ZM27.6769 22.4831H27.7155V22.4219L27.6769 22.4831ZM25.1696 0C20.192 0 15.3262 1.49062 11.1875 4.28336C7.04877 7.0761 3.82303 11.0455 1.91819 15.6897C0.0133456 20.3338 -0.485047 25.4441 0.486032 30.3744C1.45711 35.3046 3.85405 39.8333 7.37374 43.3877C10.8934 46.9422 15.3778 49.3629 20.2597 50.3435C25.1417 51.3242 30.202 50.8209 34.8007 48.8972C39.3993 46.9736 43.3299 43.7159 46.0953 39.5363C48.8607 35.3567 50.3367 30.4428 50.3367 25.416C50.3295 18.6775 47.6756 12.2171 42.9574 7.4523C38.2392 2.68747 31.8421 0.00736526 25.1696 0ZM18.8764 36.8579C18.875 36.9705 18.8296 37.0781 18.7502 37.1573C18.6708 37.2364 18.5637 37.2808 18.4521 37.2808H13.6027C13.4917 37.2808 13.3851 37.2363 13.3066 37.1569C13.2281 37.0776 13.1839 36.97 13.1839 36.8579V20.4018C13.1832 20.3458 13.1935 20.2902 13.2142 20.2382C13.2349 20.1862 13.2657 20.139 13.3046 20.0991C13.3436 20.0592 13.39 20.0276 13.4412 20.006C13.4924 19.9844 13.5473 19.9733 13.6027 19.9733H18.4521C18.5078 19.9733 18.563 19.9843 18.6145 20.0059C18.666 20.0274 18.7128 20.059 18.7522 20.0988C18.7916 20.1386 18.8228 20.1858 18.8441 20.2378C18.8655 20.2898 18.8764 20.3455 18.8764 20.4018V36.8579ZM15.8566 17.775C15.2539 17.775 14.6647 17.5945 14.1636 17.2564C13.6624 16.9182 13.2718 16.4376 13.0412 15.8752C12.8105 15.3129 12.7502 14.6941 12.8678 14.0971C12.9853 13.5001 13.2756 12.9518 13.7018 12.5214C14.128 12.091 14.6709 11.7979 15.2621 11.6791C15.8532 11.5604 16.4659 11.6213 17.0228 11.8543C17.5796 12.0872 18.0556 12.4816 18.3904 12.9877C18.7253 13.4938 18.904 14.0888 18.904 14.6975C18.9047 15.1019 18.8264 15.5024 18.6735 15.8761C18.5206 16.2498 18.2962 16.5894 18.0131 16.8753C17.7299 17.1612 17.3937 17.3879 17.0236 17.5423C16.6536 17.6967 16.257 17.7758 15.8566 17.775ZM39.3981 36.8579C39.3967 36.9705 39.3513 37.0781 39.2719 37.1573C39.1925 37.2364 39.0854 37.2808 38.9738 37.2808H34.1244C34.0694 37.2808 34.015 37.2699 33.9641 37.2486C33.9133 37.2274 33.8672 37.1962 33.8283 37.1569C33.7894 37.1177 33.7585 37.071 33.7375 37.0197C33.7164 36.9684 33.7056 36.9134 33.7056 36.8579V28.0149C33.7056 25.6886 32.8845 24.1193 30.8235 24.1193C30.1813 24.1229 29.5559 24.327 29.0331 24.7036C28.5102 25.0802 28.1154 25.6109 27.9029 26.2229C27.7576 26.6752 27.6941 27.1503 27.7155 27.6253V36.8579C27.7155 36.9715 27.6708 37.0805 27.5912 37.1609C27.5117 37.2412 27.4037 37.2864 27.2912 37.2864H22.4418C22.3864 37.2864 22.3314 37.2753 22.2803 37.2537C22.2291 37.2321 22.1827 37.2004 22.1437 37.1605C22.1048 37.1207 22.074 37.0734 22.0533 37.0214C22.0326 36.9695 22.0223 36.9139 22.023 36.8579C22.023 34.5094 22.0836 23.1064 22.023 20.424C22.0223 20.368 22.0326 20.3124 22.0533 20.2605C22.074 20.2085 22.1048 20.1612 22.1437 20.1214C22.1827 20.0815 22.2291 20.0498 22.2803 20.0282C22.3314 20.0066 22.3864 19.9955 22.4418 19.9955H27.2802C27.3361 19.9948 27.3916 20.0053 27.4434 20.0266C27.4953 20.0479 27.5423 20.0794 27.5819 20.1194C27.6214 20.1593 27.6527 20.2068 27.6737 20.2592C27.6948 20.3115 27.7052 20.3676 27.7045 20.424V22.4442C28.22 21.5405 28.9706 20.7967 29.8751 20.2934C30.7795 19.7901 31.8031 19.5466 32.8349 19.5893C36.5767 19.5893 39.3871 22.0602 39.3871 27.3804L39.3981 36.8579ZM27.7155 22.4998V22.4386L27.6769 22.4998H27.7155ZM27.6769 22.4998H27.7155V22.4386L27.6769 22.4998ZM27.6769 22.4998H27.7155V22.4386L27.6769 22.4998ZM27.6769 22.4998H27.7155V22.4386L27.6769 22.4998ZM27.6769 22.4998H27.7155V22.4386L27.6769 22.4998ZM27.6769 22.4998H27.7155V22.4386L27.6769 22.4998ZM27.6769 22.4998H27.7155V22.4386L27.6769 22.4998ZM27.6769 22.4998H27.7155V22.4386L27.6769 22.4998ZM27.6769 22.4998H27.7155V22.4386L27.6769 22.4998ZM27.6769 22.4998H27.7155V22.4386L27.6769 22.4998ZM27.6769 22.4998H27.7155V22.4386L27.6769 22.4998ZM27.6769 22.4998H27.7155V22.4386L27.6769 22.4998ZM27.6769 22.4998H27.7155V22.4386L27.6769 22.4998ZM27.6769 22.4998H27.7155V22.4386L27.6769 22.4998ZM27.6769 22.4998H27.7155V22.4386L27.6769 22.4998Z" fill="white"/>
</svg>
