<svg width="37" height="37" viewBox="0 0 37 37" fill="none" xmlns="http://www.w3.org/2000/svg">
<path d="M36.3922 33.4742L29.4055 26.5081C31.6597 23.6363 32.8828 20.09 32.8783 16.4392C32.8783 13.1878 31.9142 10.0095 30.1078 7.30605C28.3014 4.60265 25.734 2.4956 22.7301 1.25136C19.7263 0.00712277 16.4209 -0.318427 13.232 0.315881C10.0432 0.950189 7.11398 2.51587 4.81492 4.81492C2.51587 7.11398 0.950189 10.0432 0.315881 13.232C-0.318427 16.4209 0.00712277 19.7263 1.25136 22.7301C2.4956 25.734 4.60265 28.3014 7.30605 30.1078C10.0095 31.9142 13.1878 32.8783 16.4392 32.8783C20.09 32.8828 23.6363 31.6597 26.5081 29.4055L33.4742 36.3922C33.6652 36.5848 33.8925 36.7376 34.1429 36.842C34.3933 36.9463 34.6619 37 34.9332 37C35.2045 37 35.473 36.9463 35.7235 36.842C35.9739 36.7376 36.2011 36.5848 36.3922 36.3922C36.5848 36.2011 36.7376 35.9739 36.842 35.7235C36.9463 35.473 37 35.2045 37 34.9332C37 34.6619 36.9463 34.3933 36.842 34.1429C36.7376 33.8925 36.5848 33.6652 36.3922 33.4742ZM4.10979 16.4392C4.10979 14.0006 4.8329 11.6169 6.18767 9.58933C7.54243 7.56178 9.46802 5.98149 11.7209 5.04831C13.9738 4.11513 16.4528 3.87097 18.8445 4.3467C21.2362 4.82243 23.433 5.99669 25.1573 7.72098C26.8816 9.44527 28.0559 11.6422 28.5316 14.0338C29.0073 16.4255 28.7632 18.9045 27.83 21.1574C26.8968 23.4103 25.3165 25.3359 23.289 26.6906C21.2614 28.0454 18.8777 28.7685 16.4392 28.7685C13.1692 28.7685 10.0332 27.4695 7.72098 25.1573C5.40878 22.8451 4.10979 19.7091 4.10979 16.4392Z" fill="white"/>
</svg>
