<svg width="38" height="38" viewBox="0 0 38 38" fill="none" xmlns="http://www.w3.org/2000/svg">
<path d="M3.53665 37.7776C2.78099 37.7705 2.05826 37.4672 1.5239 36.9329C0.989539 36.3985 0.686229 35.6758 0.679199 34.9201V14.9503C0.679199 13.3922 1.98392 12.0928 3.53665 12.0928H7.82284C8.87955 12.0928 9.80688 12.7021 10.3029 13.5755C11.2626 12.9824 12.2061 12.6374 12.8153 12.2869C14.2494 11.4567 14.9826 9.12756 15.3223 6.69603C15.4894 5.48296 15.5811 4.31302 15.7321 3.33717C15.8075 2.85194 15.8776 2.42063 16.0771 1.94618C16.2045 1.58634 16.4371 1.2731 16.7447 1.04716C17.0524 0.821218 17.4209 0.693014 17.8024 0.679199C19.9212 0.679199 21.6572 1.50948 22.7625 2.78185C23.8731 4.04884 24.3907 5.63931 24.671 7.2136C25.1239 9.7907 24.9514 11.9742 24.8651 13.5324H33.4914C35.8421 13.5324 37.783 15.4625 37.783 17.8078C37.783 18.638 37.5458 19.2634 37.2438 20.2339C36.9419 21.2097 36.5376 22.3851 36.0847 23.6413C35.1897 26.1537 34.1222 29.0003 33.4213 31.0976C33.1577 31.9999 32.7179 32.8409 32.1274 33.5723C31.7664 33.9907 31.3207 34.3277 30.8197 34.561C30.3187 34.7943 29.774 34.9185 29.2214 34.9255H12.0982C11.612 34.9211 11.1303 34.8317 10.6749 34.6613V34.9309C10.6749 36.4836 9.38096 37.783 7.82284 37.783L3.53665 37.7776ZM3.53665 34.9201H7.82284V14.9503H3.53665V34.9201ZM12.0982 32.0681H29.2214C29.5988 32.0681 29.7174 31.9926 29.9654 31.7014C30.3032 31.2422 30.5585 30.7277 30.7202 30.1811C31.4481 27.9975 32.5156 25.1563 33.3997 22.6762C33.8418 21.4362 34.2408 20.2878 34.5158 19.3874C34.7961 18.4925 34.9309 17.6837 34.9309 17.8024C34.9346 17.6135 34.9 17.4259 34.8291 17.2508C34.7582 17.0757 34.6525 16.9168 34.5185 16.7838C34.3844 16.6507 34.2247 16.5462 34.0491 16.4767C33.8735 16.4071 33.6856 16.3739 33.4968 16.379H23.3879C23.1993 16.3797 23.0125 16.3431 22.8382 16.2713C22.6639 16.1995 22.5055 16.0939 22.3722 15.9606C22.2389 15.8273 22.1333 15.6689 22.0615 15.4946C21.9897 15.3202 21.953 15.1334 21.9538 14.9449C21.9538 13.2628 22.3204 10.2544 21.8729 7.69883C21.6464 6.42646 21.2259 5.35356 20.6167 4.65807C20.0898 4.06532 19.3656 3.68406 18.5787 3.58518C18.4332 4.39928 18.3361 5.79027 18.1528 7.0896C17.7808 9.74757 17.0799 13.1118 14.2386 14.7562C13.1765 15.3654 12.1521 15.7267 11.5429 16.1472C10.9283 16.5677 10.6803 16.7942 10.6803 17.8024V30.6339C10.6803 31.4534 11.2841 32.0681 12.0982 32.0681Z" fill="#FE715F"/>
</svg>
