<svg width="39" height="39" viewBox="0 0 39 39" fill="none" xmlns="http://www.w3.org/2000/svg">
<path d="M19.2312 38.3963C8.70444 38.3963 0.141602 29.8334 0.141602 19.3067C0.141602 8.77988 8.70444 0.217041 19.2312 0.217041C29.758 0.217041 38.3208 8.77988 38.3208 19.3067C38.3208 29.8334 29.7565 38.3963 19.2312 38.3963ZM19.2312 3.27138C10.3889 3.27138 3.19594 10.4644 3.19594 19.3067C3.19594 28.149 10.3889 35.3419 19.2312 35.3419C28.0735 35.3419 35.2665 28.149 35.2665 19.3067C35.2665 10.4644 28.072 3.27138 19.2312 3.27138ZM19.1091 20.7117H9.30462C8.89959 20.7117 8.51115 20.5508 8.22475 20.2644C7.93835 19.978 7.77745 19.5895 7.77745 19.1845C7.77745 18.7795 7.93835 18.391 8.22475 18.1046C8.51115 17.8182 8.89959 17.6573 9.30462 17.6573H17.5819V6.32572C17.5819 5.92069 17.7428 5.53225 18.0292 5.24585C18.3156 4.95945 18.704 4.79855 19.1091 4.79855C19.5141 4.79855 19.9025 4.95945 20.1889 5.24585C20.4753 5.53225 20.6362 5.92069 20.6362 6.32572V19.1845C20.6362 19.5895 20.4753 19.978 20.1889 20.2644C19.9025 20.5508 19.5141 20.7117 19.1091 20.7117Z" fill="#FE715F"/>
</svg>
