<svg width="46" height="46" viewBox="0 0 46 46" fill="none" xmlns="http://www.w3.org/2000/svg">
<path d="M1.51531 23.8316C1.23347 23.8316 0.963174 23.7196 0.763885 23.5203C0.564596 23.3211 0.452637 23.0508 0.452637 22.7689V2.57822C0.453199 2.01472 0.677299 1.47446 1.07575 1.076C1.47421 0.677543 2.01447 0.453444 2.57797 0.452881H21.706C22.2695 0.453444 22.8098 0.677543 23.2082 1.076C23.6067 1.47446 23.8308 2.01472 23.8313 2.57822V17.4556C23.8308 18.0191 23.6067 18.5593 23.2082 18.9578C22.8098 19.3563 22.2695 19.5804 21.706 19.5809H6.20592L2.26661 23.5202C2.16799 23.619 2.05087 23.6973 1.92196 23.7507C1.79304 23.8041 1.65485 23.8316 1.51531 23.8316ZM21.706 2.57609L2.57797 2.57822V20.2036L5.01467 17.7669C5.21392 17.5676 5.48416 17.4556 5.76598 17.4556H21.706V2.57609ZM44.022 45.085C43.8825 45.085 43.7443 45.0575 43.6154 45.0041C43.4865 44.9506 43.3694 44.8723 43.2707 44.7736L39.3314 40.8343H23.8313C23.2678 40.8337 22.7276 40.6096 22.3291 40.2112C21.9307 39.8127 21.7066 39.2724 21.706 38.7089V23.8316C21.7066 23.2681 21.9307 22.7278 22.3291 22.3294C22.7276 21.9309 23.2678 21.7068 23.8313 21.7062H42.9594C43.5229 21.7068 44.0631 21.9309 44.4616 22.3294C44.86 22.7278 45.0841 23.2681 45.0847 23.8316V44.0223C45.0847 44.3041 44.9728 44.5744 44.7735 44.7737C44.5742 44.973 44.3039 45.085 44.022 45.085ZM23.8313 23.8316V38.7089H39.7714C40.0532 38.709 40.3234 38.821 40.5227 39.0203L42.9594 41.457V23.8316H23.8313Z" fill="#FE715F"/>
<path d="M8.95217 15.3302C8.68343 15.3299 8.42479 15.2278 8.22831 15.0445C8.03183 14.8612 7.91211 14.6102 7.89325 14.3421C7.87439 14.074 7.95779 13.8088 8.12667 13.5997C8.29554 13.3907 8.53735 13.2534 8.80339 13.2155C10.1843 13.0143 11.464 12.3747 12.4537 11.3909C13.1399 10.7042 13.662 9.8712 13.9807 8.95419H8.95429C8.67245 8.95419 8.40216 8.84223 8.20287 8.64295C8.00358 8.44366 7.89162 8.17336 7.89162 7.89153C7.89162 7.60969 8.00358 7.33939 8.20287 7.14011C8.40216 6.94082 8.67245 6.82886 8.95429 6.82886H15.3303C15.4825 6.82886 15.6329 6.86156 15.7714 6.92475C15.9099 6.98793 16.0332 7.08013 16.1329 7.1951C16.2327 7.31006 16.3066 7.44512 16.3496 7.59112C16.3926 7.73713 16.4038 7.89067 16.3823 8.04136C16.1202 9.87857 15.2692 11.5812 13.957 12.8935C12.6448 14.2059 10.9424 15.0572 9.10519 15.3196C9.05485 15.3267 9.00301 15.3303 8.95217 15.3302Z" fill="#FE715F"/>
<path d="M12.1425 8.95404C11.8606 8.95404 11.5903 8.84208 11.3911 8.64279C11.1918 8.44351 11.0798 8.17321 11.0798 7.89137V5.76604C11.0798 5.4842 11.1918 5.21391 11.3911 5.01462C11.5903 4.81533 11.8606 4.70337 12.1425 4.70337C12.4243 4.70337 12.6946 4.81533 12.8939 5.01462C13.0932 5.21391 13.2051 5.4842 13.2051 5.76604V7.89137C13.2051 8.17321 13.0932 8.44351 12.8939 8.64279C12.6946 8.84208 12.4243 8.95404 12.1425 8.95404ZM16.3942 15.3301C16.3666 15.3301 16.3382 15.329 16.3092 15.3269C15.0731 15.2312 13.8762 14.8492 12.8131 14.2113C11.7501 13.5733 10.85 12.6968 10.184 11.6511C10.0324 11.4135 9.98132 11.1254 10.0421 10.8502C10.1029 10.575 10.2705 10.3352 10.5081 10.1836C10.7457 10.0319 11.0338 9.98089 11.309 10.0417C11.5842 10.1025 11.824 10.2701 11.9756 10.5077C12.4645 11.2763 13.1257 11.9205 13.9069 12.389C14.6881 12.8575 15.5678 13.1376 16.476 13.2068C16.7532 13.2238 17.0126 13.3486 17.1989 13.5545C17.3852 13.7604 17.4836 14.031 17.4729 14.3084C17.4622 14.5859 17.3433 14.8481 17.1417 15.0391C16.9401 15.23 16.6718 15.3344 16.3942 15.3301ZM29.1441 36.5834C28.9631 36.5831 28.7852 36.5367 28.6272 36.4484C28.4693 36.36 28.3365 36.2329 28.2414 36.0788C28.1464 35.9248 28.0922 35.7491 28.0841 35.5683C28.076 35.3875 28.1143 35.2076 28.1952 35.0457L32.4458 26.5444C32.5769 26.3013 32.7974 26.1188 33.0607 26.0356C33.324 25.9523 33.6094 25.9748 33.8564 26.0983C34.1034 26.2218 34.2926 26.4366 34.384 26.6972C34.4753 26.9578 34.4617 27.2437 34.3459 27.4944L30.0952 35.9958C30.007 36.1723 29.8714 36.3207 29.7036 36.4245C29.5358 36.5283 29.3414 36.5833 29.1441 36.5834Z" fill="#FE715F"/>
<path d="M37.6474 36.5836C37.4499 36.5837 37.2563 36.5288 37.0883 36.425C36.9203 36.3212 36.7846 36.1726 36.6963 35.996L32.4456 27.4946C32.3298 27.2439 32.3161 26.958 32.4075 26.6974C32.4989 26.4368 32.6881 26.222 32.9351 26.0985C33.1821 25.975 33.4675 25.9525 33.7308 26.0358C33.994 26.1191 34.2146 26.3015 34.3457 26.5446L38.5963 35.046C38.6772 35.2078 38.7154 35.3875 38.7074 35.5683C38.6993 35.749 38.6453 35.9246 38.5503 36.0786C38.4554 36.2326 38.3228 36.3598 38.1649 36.4482C38.0071 36.5366 37.8283 36.5832 37.6474 36.5836Z" fill="#FE715F"/>
<path d="M37.0969 33.3605H29.6943C29.4125 33.3605 29.1422 33.2485 28.9429 33.0492C28.7436 32.8499 28.6316 32.5796 28.6316 32.2978C28.6316 32.016 28.7436 31.7457 28.9429 31.5464C29.1422 31.3471 29.4125 31.2351 29.6943 31.2351H37.0969C37.3787 31.2351 37.649 31.3471 37.8483 31.5464C38.0476 31.7457 38.1595 32.016 38.1595 32.2978C38.1595 32.5796 38.0476 32.8499 37.8483 33.0492C37.649 33.2485 37.3787 33.3605 37.0969 33.3605ZM7.89154 25.9569C7.6814 25.9568 7.47599 25.8945 7.30128 25.7777C7.12656 25.6609 6.99039 25.495 6.90998 25.3008C6.82957 25.1067 6.80852 24.893 6.84951 24.6869C6.89049 24.4808 6.99167 24.2915 7.14024 24.1429L9.26557 22.0175C9.466 21.824 9.73443 21.7169 10.0131 21.7193C10.2917 21.7217 10.5582 21.8335 10.7552 22.0305C10.9523 22.2275 11.064 22.494 11.0665 22.7727C11.0689 23.0513 10.9618 23.3197 10.7682 23.5202L8.64285 25.6455C8.5443 25.7443 8.42719 25.8227 8.29826 25.8761C8.16933 25.9296 8.03111 25.957 7.89154 25.9569Z" fill="#FE715F"/>
<path d="M12.1417 25.9569C12.0022 25.957 11.864 25.9296 11.735 25.8761C11.6061 25.8227 11.489 25.7443 11.3904 25.6455L9.2651 23.5202C9.07153 23.3197 8.96442 23.0513 8.96684 22.7727C8.96926 22.494 9.08102 22.2275 9.27805 22.0305C9.47507 21.8335 9.7416 21.7217 10.0202 21.7193C10.2989 21.7169 10.5673 21.824 10.7677 22.0175L12.8931 24.1429C13.0416 24.2915 13.1428 24.4808 13.1838 24.6869C13.2248 24.893 13.2037 25.1067 13.1233 25.3008C13.0429 25.495 12.9067 25.6609 12.732 25.7777C12.5573 25.8945 12.3519 25.9568 12.1417 25.9569Z" fill="#FE715F"/>
<path d="M18.5181 34.4582H11.0794C10.5159 34.4577 9.97568 34.2336 9.57722 33.8351C9.17876 33.4367 8.95466 32.8964 8.9541 32.3329V22.7689C8.9541 22.487 9.06606 22.2168 9.26535 22.0175C9.46464 21.8182 9.73493 21.7062 10.0168 21.7062C10.2986 21.7062 10.5689 21.8182 10.7682 22.0175C10.9675 22.2168 11.0794 22.487 11.0794 22.7689V32.3329H18.5181C18.8 32.3329 19.0702 32.4449 19.2695 32.6441C19.4688 32.8434 19.5808 33.1137 19.5808 33.3956C19.5808 33.6774 19.4688 33.9477 19.2695 34.147C19.0702 34.3463 18.8 34.4582 18.5181 34.4582ZM35.5208 19.5809C35.3107 19.5808 35.1053 19.5185 34.9305 19.4017C34.7558 19.2849 34.6197 19.119 34.5392 18.9248C34.4588 18.7307 34.4378 18.5171 34.4788 18.311C34.5198 18.1048 34.6209 17.9155 34.7695 17.7669L36.8948 15.6416C37.0953 15.448 37.3637 15.3409 37.6423 15.3433C37.921 15.3457 38.1875 15.4575 38.3845 15.6545C38.5815 15.8515 38.6933 16.1181 38.6957 16.3967C38.6981 16.6753 38.591 16.9438 38.3975 17.1442L36.2721 19.2695C36.1736 19.3683 36.0565 19.4467 35.9275 19.5002C35.7986 19.5536 35.6604 19.581 35.5208 19.5809Z" fill="#FE715F"/>
<path d="M35.5207 19.5809C35.3811 19.581 35.2429 19.5536 35.1139 19.5002C34.985 19.4467 34.8679 19.3683 34.7693 19.2695L32.644 17.1442C32.4504 16.9438 32.3433 16.6753 32.3457 16.3967C32.3482 16.1181 32.4599 15.8515 32.657 15.6545C32.854 15.4575 33.1205 15.3457 33.3991 15.3433C33.6778 15.3409 33.9462 15.448 34.1466 15.6416L36.272 17.7669C36.4205 17.9155 36.5217 18.1048 36.5627 18.311C36.6037 18.5171 36.5826 18.7307 36.5022 18.9248C36.4218 19.119 36.2856 19.2849 36.1109 19.4017C35.9362 19.5185 35.7308 19.5808 35.5207 19.5809Z" fill="#FE715F"/>
<path d="M35.521 19.5809C35.2392 19.5809 34.9689 19.4689 34.7696 19.2696C34.5703 19.0703 34.4584 18.8 34.4584 18.5182V8.95419H27.0197C26.7379 8.95419 26.4676 8.84223 26.2683 8.64295C26.069 8.44366 25.957 8.17336 25.957 7.89153C25.957 7.60969 26.069 7.33939 26.2683 7.14011C26.4676 6.94082 26.7379 6.82886 27.0197 6.82886H34.4584C35.0219 6.82942 35.5621 7.05352 35.9606 7.45198C36.3591 7.85043 36.5832 8.39069 36.5837 8.95419V18.5182C36.5837 18.8 36.4718 19.0703 36.2725 19.2696C36.0732 19.4689 35.8029 19.5809 35.521 19.5809Z" fill="#FE715F"/>
</svg>
