<svg width="36" height="38" viewBox="0 0 36 38" fill="none" xmlns="http://www.w3.org/2000/svg">
<path d="M9.36 0C8.17632 0 7.2 1.0735 7.2 2.375V3.16667H2.448C1.0656 3.16667 0 4.49667 0 6.03725V35.131C0 36.67 1.0656 38 2.448 38H33.552C34.9344 38 36 36.67 36 35.1294V6.03725C36 4.49667 34.9344 3.16667 33.552 3.16667H28.8V2.375C28.8 1.0735 27.8237 0 26.64 0C25.4563 0 24.48 1.0735 24.48 2.375V3.16667H11.52V2.375C11.52 1.0735 10.5437 0 9.36 0ZM9.36 1.58333C9.77184 1.58333 10.08 1.92217 10.08 2.375V7.125C10.08 7.57783 9.77184 7.91667 9.36 7.91667C9.2648 7.91927 9.17011 7.90058 9.08169 7.86172C8.99326 7.82285 8.91294 7.76464 8.8456 7.6906C8.77827 7.61656 8.72532 7.52824 8.68997 7.43102C8.65463 7.33379 8.63763 7.22967 8.64 7.125V2.375C8.64 1.92217 8.94816 1.58333 9.36 1.58333ZM26.64 1.58333C27.0518 1.58333 27.36 1.92217 27.36 2.375V7.125C27.36 7.57783 27.0518 7.91667 26.64 7.91667C26.5448 7.91927 26.4501 7.90058 26.3617 7.86172C26.2733 7.82285 26.1929 7.76464 26.1256 7.6906C26.0583 7.61656 26.0053 7.52824 25.97 7.43102C25.9346 7.33379 25.9176 7.22967 25.92 7.125V2.375C25.92 1.92217 26.2282 1.58333 26.64 1.58333ZM2.448 4.75H7.2V7.125C7.2 8.4265 8.17632 9.5 9.36 9.5C10.5437 9.5 11.52 8.4265 11.52 7.125V4.75H24.48V7.125C24.48 8.4265 25.4563 9.5 26.64 9.5C27.8237 9.5 28.8 8.4265 28.8 7.125V4.75H33.552C34.0877 4.75 34.56 5.2725 34.56 6.03725V35.131C34.56 35.8942 34.0877 36.4167 33.552 36.4167H2.448C1.91232 36.4167 1.44 35.8942 1.44 35.1294V6.03725C1.44 5.2725 1.91232 4.75 2.448 4.75ZM19.44 12.6667C19.249 12.6667 19.0659 12.7501 18.9309 12.8985C18.7959 13.047 18.72 13.2484 18.72 13.4583V18.2083C18.72 18.4183 18.7959 18.6197 18.9309 18.7681C19.0659 18.9166 19.249 19 19.44 19H23.76C23.951 19 24.1341 18.9166 24.2691 18.7681C24.4041 18.6197 24.48 18.4183 24.48 18.2083V13.4583C24.48 13.2484 24.4041 13.047 24.2691 12.8985C24.1341 12.7501 23.951 12.6667 23.76 12.6667H19.44ZM26.64 12.6667C26.449 12.6667 26.2659 12.7501 26.1309 12.8985C25.9959 13.047 25.92 13.2484 25.92 13.4583V18.2083C25.92 18.4183 25.9959 18.6197 26.1309 18.7681C26.2659 18.9166 26.449 19 26.64 19H30.96C31.151 19 31.3341 18.9166 31.4691 18.7681C31.6041 18.6197 31.68 18.4183 31.68 18.2083V13.4583C31.68 13.2484 31.6041 13.047 31.4691 12.8985C31.3341 12.7501 31.151 12.6667 30.96 12.6667H26.64ZM20.16 14.25H23.04V17.4167H20.16V14.25ZM27.36 14.25H30.24V17.4167H27.36V14.25ZM5.04 20.5833C4.84904 20.5833 4.66591 20.6667 4.53088 20.8152C4.39586 20.9637 4.32 21.165 4.32 21.375V26.125C4.32 26.335 4.39586 26.5363 4.53088 26.6848C4.66591 26.8333 4.84904 26.9167 5.04 26.9167H9.36C9.55096 26.9167 9.73409 26.8333 9.86912 26.6848C10.0041 26.5363 10.08 26.335 10.08 26.125V21.375C10.08 21.165 10.0041 20.9637 9.86912 20.8152C9.73409 20.6667 9.55096 20.5833 9.36 20.5833H5.04ZM12.24 20.5833C12.049 20.5833 11.8659 20.6667 11.7309 20.8152C11.5959 20.9637 11.52 21.165 11.52 21.375V26.125C11.52 26.335 11.5959 26.5363 11.7309 26.6848C11.8659 26.8333 12.049 26.9167 12.24 26.9167H16.56C16.751 26.9167 16.9341 26.8333 17.0691 26.6848C17.2041 26.5363 17.28 26.335 17.28 26.125V21.375C17.28 21.165 17.2041 20.9637 17.0691 20.8152C16.9341 20.6667 16.751 20.5833 16.56 20.5833H12.24ZM19.44 20.5833C19.249 20.5833 19.0659 20.6667 18.9309 20.8152C18.7959 20.9637 18.72 21.165 18.72 21.375V26.125C18.72 26.335 18.7959 26.5363 18.9309 26.6848C19.0659 26.8333 19.249 26.9167 19.44 26.9167H23.76C23.951 26.9167 24.1341 26.8333 24.2691 26.6848C24.4041 26.5363 24.48 26.335 24.48 26.125V21.375C24.48 21.165 24.4041 20.9637 24.2691 20.8152C24.1341 20.6667 23.951 20.5833 23.76 20.5833H19.44ZM26.64 20.5833C26.449 20.5833 26.2659 20.6667 26.1309 20.8152C25.9959 20.9637 25.92 21.165 25.92 21.375V26.125C25.92 26.335 25.9959 26.5363 26.1309 26.6848C26.2659 26.8333 26.449 26.9167 26.64 26.9167H30.96C31.151 26.9167 31.3341 26.8333 31.4691 26.6848C31.6041 26.5363 31.68 26.335 31.68 26.125V21.375C31.68 21.165 31.6041 20.9637 31.4691 20.8152C31.3341 20.6667 31.151 20.5833 30.96 20.5833H26.64ZM5.76 22.1667H8.64V25.3333H5.76V22.1667ZM12.96 22.1667H15.84V25.3333H12.96V22.1667ZM20.16 22.1667H23.04V25.3333H20.16V22.1667ZM27.36 22.1667H30.24V25.3333H27.36V22.1667ZM5.04 28.5C4.84904 28.5 4.66591 28.5834 4.53088 28.7319C4.39586 28.8803 4.32 29.0817 4.32 29.2917V34.0417C4.32 34.2516 4.39586 34.453 4.53088 34.6015C4.66591 34.7499 4.84904 34.8333 5.04 34.8333H9.36C9.55096 34.8333 9.73409 34.7499 9.86912 34.6015C10.0041 34.453 10.08 34.2516 10.08 34.0417V29.2917C10.08 29.0817 10.0041 28.8803 9.86912 28.7319C9.73409 28.5834 9.55096 28.5 9.36 28.5H5.04ZM12.24 28.5C12.049 28.5 11.8659 28.5834 11.7309 28.7319C11.5959 28.8803 11.52 29.0817 11.52 29.2917V34.0417C11.52 34.2516 11.5959 34.453 11.7309 34.6015C11.8659 34.7499 12.049 34.8333 12.24 34.8333H16.56C16.751 34.8333 16.9341 34.7499 17.0691 34.6015C17.2041 34.453 17.28 34.2516 17.28 34.0417V29.2917C17.28 29.0817 17.2041 28.8803 17.0691 28.7319C16.9341 28.5834 16.751 28.5 16.56 28.5H12.24ZM19.44 28.5C19.249 28.5 19.0659 28.5834 18.9309 28.7319C18.7959 28.8803 18.72 29.0817 18.72 29.2917V34.0417C18.72 34.2516 18.7959 34.453 18.9309 34.6015C19.0659 34.7499 19.249 34.8333 19.44 34.8333H23.76C23.951 34.8333 24.1341 34.7499 24.2691 34.6015C24.4041 34.453 24.48 34.2516 24.48 34.0417V29.2917C24.48 29.0817 24.4041 28.8803 24.2691 28.7319C24.1341 28.5834 23.951 28.5 23.76 28.5H19.44ZM5.76 30.0833H8.64V33.25H5.76V30.0833ZM12.96 30.0833H15.84V33.25H12.96V30.0833ZM20.16 30.0833H23.04V33.25H20.16V30.0833Z" fill="#FE715F"/>
</svg>
