<svg width="39" height="36" viewBox="0 0 39 36" fill="none" xmlns="http://www.w3.org/2000/svg">
<path d="M20.8834 19.8184C23.5191 19.8184 25.6557 21.9522 25.6557 24.5844L25.6533 26.9621C25.9805 32.7974 21.4801 35.7075 13.1345 35.7075C4.81578 35.7075 0.216797 32.8355 0.216797 27.0454V24.5844C0.216797 21.9522 2.35344 19.8184 4.98911 19.8184H20.8834ZM33.6115 19.8184C36.2472 19.8184 38.3838 21.9522 38.3838 24.5844L38.3815 26.2574C38.6691 31.4919 34.6926 34.1162 27.4241 34.1162C26.4374 34.1162 25.5098 34.0682 24.6436 33.9722C25.5684 33.1227 26.2572 32.1086 26.6961 30.9306L27.4241 30.939C33.1006 30.939 35.3701 29.4412 35.2023 26.3445V24.5844C35.2023 23.707 34.4901 22.9957 33.6115 22.9957L27.046 22.9957C26.724 21.746 26.0308 20.6451 25.0908 19.8171L33.6115 19.8184ZM20.8834 22.9957H4.98911C4.11055 22.9957 3.39834 23.707 3.39834 24.5844V27.0454C3.39834 30.6865 6.35063 32.5302 13.1345 32.5302C19.8914 32.5302 22.678 30.7283 22.4742 27.051V24.5844C22.4742 23.707 21.762 22.9957 20.8834 22.9957ZM12.943 0.754639C17.3365 0.754639 20.8981 4.31152 20.8981 8.69917C20.8981 13.0868 17.3365 16.6437 12.943 16.6437C8.54947 16.6437 4.98782 13.0868 4.98782 8.69917C4.98782 4.31152 8.54947 0.754639 12.943 0.754639ZM28.8507 3.93193C32.3649 3.93193 35.2138 6.77698 35.2138 10.2865C35.2138 13.7961 32.3649 16.6411 28.8507 16.6411C25.3365 16.6411 22.4876 13.7961 22.4876 10.2865C22.4876 6.77698 25.3365 3.93193 28.8507 3.93193ZM12.943 3.93193C10.3066 3.93193 8.16937 6.0663 8.16937 8.69917C8.16937 11.332 10.3066 13.4664 12.943 13.4664C15.5794 13.4664 17.7166 11.332 17.7166 8.69917C17.7166 6.0663 15.5794 3.93193 12.943 3.93193ZM28.8507 7.10923C27.0936 7.10923 25.6692 8.53175 25.6692 10.2865C25.6692 12.0413 27.0936 13.4638 28.8507 13.4638C30.6078 13.4638 32.0322 12.0413 32.0322 10.2865C32.0322 8.53175 30.6078 7.10923 28.8507 7.10923Z" fill="#FE715F"/>
</svg>
