<svg width="46" height="39" viewBox="0 0 46 39" fill="none" xmlns="http://www.w3.org/2000/svg">
<path d="M7.90101 29.6375C6.59609 29.6375 5.32048 29.2505 4.23548 28.5255C3.15048 27.8006 2.30482 26.7701 1.80545 25.5645C1.30608 24.359 1.17542 23.0324 1.43 21.7525C1.68458 20.4727 2.31296 19.2971 3.23567 18.3743C4.15839 17.4516 5.334 16.8232 6.61385 16.5687C7.89369 16.3141 9.22029 16.4448 10.4259 16.9441C11.6315 17.4435 12.6619 18.2891 13.3869 19.3741C14.1118 20.4591 14.4988 21.7348 14.4988 23.0397C14.4967 24.7889 13.801 26.4659 12.5641 27.7028C11.3272 28.9396 9.65022 29.6354 7.90101 29.6375ZM7.90101 18.7705C7.05665 18.7705 6.23125 19.0209 5.5292 19.49C4.82714 19.9591 4.27995 20.6259 3.95683 21.4059C3.6337 22.186 3.54916 23.0444 3.71389 23.8726C3.87861 24.7007 4.28521 25.4614 4.88226 26.0584C5.47931 26.6555 6.24 27.0621 7.06814 27.2268C7.89627 27.3915 8.75466 27.307 9.53475 26.9839C10.3148 26.6607 10.9816 26.1136 11.4507 25.4115C11.9198 24.7094 12.1702 23.884 12.1702 23.0397C12.1681 21.9081 11.7177 20.8234 10.9175 20.0232C10.1173 19.223 9.03263 18.7726 7.90101 18.7705Z" fill="#FE715F"/>
<path d="M13.7225 38.952H2.07935C1.77056 38.952 1.47441 38.8293 1.25606 38.611C1.03771 38.3926 0.915039 38.0965 0.915039 37.7877V32.3542C0.917092 31.0167 1.44932 29.7346 2.39506 28.7889C3.3408 27.8431 4.62292 27.3109 5.9604 27.3088H9.84145C11.1789 27.3109 12.4611 27.8431 13.4068 28.7889C14.3525 29.7346 14.8848 31.0167 14.8868 32.3542V37.7877C14.8868 38.0965 14.7641 38.3926 14.5458 38.611C14.3274 38.8293 14.0313 38.952 13.7225 38.952ZM3.24367 36.6234H12.5582V32.3542C12.5582 31.6337 12.272 30.9427 11.7625 30.4332C11.253 29.9237 10.562 29.6375 9.84145 29.6375H5.9604C5.23988 29.6375 4.54887 29.9237 4.03938 30.4332C3.5299 30.9427 3.24367 31.6337 3.24367 32.3542V36.6234Z" fill="#FE715F"/>
<path d="M14.111 34.2946C13.8869 34.2951 13.6674 34.2309 13.4789 34.1097C13.2905 33.9885 13.1409 33.8155 13.0483 33.6114C12.9557 33.4074 12.924 33.1809 12.9569 32.9593C12.9898 32.7376 13.086 32.5302 13.2339 32.3618L24.1008 19.9425C24.3067 19.7098 24.5965 19.5685 24.9066 19.5496C25.2166 19.5307 25.5215 19.6357 25.7541 19.8416C25.9868 20.0474 26.1281 20.3373 26.147 20.6473C26.1659 20.9574 26.0609 21.2623 25.855 21.4949L14.9881 33.9142C14.8775 34.0365 14.742 34.1337 14.5907 34.1993C14.4394 34.2649 14.2758 34.2974 14.111 34.2946ZM44.3832 2.46999H6.34889C6.04009 2.46999 5.74394 2.34732 5.52559 2.12897C5.30724 1.91062 5.18457 1.61447 5.18457 1.30567C5.18457 0.996877 5.30724 0.700729 5.52559 0.482377C5.74394 0.264026 6.04009 0.141357 6.34889 0.141357H44.3832C44.692 0.141357 44.9881 0.264026 45.2065 0.482377C45.4248 0.700729 45.5475 0.996877 45.5475 1.30567C45.5475 1.61447 45.4248 1.91062 45.2065 2.12897C44.9881 2.34732 44.692 2.46999 44.3832 2.46999ZM44.3832 26.5325H28.0828C27.774 26.5325 27.4778 26.4098 27.2595 26.1915C27.0411 25.9731 26.9184 25.677 26.9184 25.3682C26.9184 25.0594 27.0411 24.7632 27.2595 24.5449C27.4778 24.3265 27.774 24.2039 28.0828 24.2039H44.3832C44.692 24.2039 44.9881 24.3265 45.2065 24.5449C45.4248 24.7632 45.5475 25.0594 45.5475 25.3682C45.5475 25.677 45.4248 25.9731 45.2065 26.1915C44.9881 26.4098 44.692 26.5325 44.3832 26.5325Z" fill="#FE715F"/>
<path d="M41.278 26.5325C40.9692 26.5325 40.673 26.4098 40.4547 26.1915C40.2363 25.9731 40.1137 25.677 40.1137 25.3682V1.30567C40.1137 0.996877 40.2363 0.700729 40.4547 0.482377C40.673 0.264026 40.9692 0.141357 41.278 0.141357C41.5868 0.141357 41.8829 0.264026 42.1013 0.482377C42.3196 0.700729 42.4423 0.996877 42.4423 1.30567V25.3682C42.4423 25.677 42.3196 25.9731 42.1013 26.1915C41.8829 26.4098 41.5868 26.5325 41.278 26.5325ZM9.45338 13.3369C9.14458 13.3369 8.84843 13.2143 8.63008 12.9959C8.41173 12.7776 8.28906 12.4814 8.28906 12.1726V1.30567C8.28906 0.996877 8.41173 0.700729 8.63008 0.482377C8.84843 0.264026 9.14458 0.141357 9.45338 0.141357C9.76217 0.141357 10.0583 0.264026 10.2767 0.482377C10.495 0.700729 10.6177 0.996877 10.6177 1.30567V12.1726C10.6177 12.4814 10.495 12.7776 10.2767 12.9959C10.0583 13.2143 9.76217 13.3369 9.45338 13.3369ZM26.53 9.45588H17.9917C17.6829 9.45588 17.3867 9.33321 17.1684 9.11486C16.95 8.89651 16.8274 8.60036 16.8274 8.29156C16.8274 7.98277 16.95 7.68662 17.1684 7.46827C17.3867 7.24992 17.6829 7.12725 17.9917 7.12725H26.53C26.8388 7.12725 27.1349 7.24992 27.3533 7.46827C27.5716 7.68662 27.6943 7.98277 27.6943 8.29156C27.6943 8.60036 27.5716 8.89651 27.3533 9.11486C27.1349 9.33321 26.8388 9.45588 26.53 9.45588ZM31.9635 15.6656H17.9917C17.6829 15.6656 17.3867 15.5429 17.1684 15.3245C16.95 15.1062 16.8274 14.81 16.8274 14.5012C16.8274 14.1924 16.95 13.8963 17.1684 13.6779C17.3867 13.4596 17.6829 13.3369 17.9917 13.3369H31.9635C32.2723 13.3369 32.5684 13.4596 32.7868 13.6779C33.0051 13.8963 33.1278 14.1924 33.1278 14.5012C33.1278 14.81 33.0051 15.1062 32.7868 15.3245C32.5684 15.5429 32.2723 15.6656 31.9635 15.6656Z" fill="#FE715F"/>
</svg>
