<svg width="29" height="30" viewBox="0 0 29 30" fill="none" xmlns="http://www.w3.org/2000/svg">
<path d="M21.3522 18.6475L18.9947 19.9855C18.7118 20.146 18.3845 20.2088 18.0628 20.1643C17.7412 20.1198 17.4428 19.9704 17.2133 19.7391L9.34492 11.8117C9.11543 11.5804 8.96732 11.2798 8.92315 10.9558C8.87898 10.6318 8.94118 10.3021 9.10026 10.017L10.4284 7.64184C10.6675 7.21436 10.7611 6.71979 10.6949 6.23368C10.6287 5.74757 10.4064 5.29664 10.062 4.94978L6.52857 1.3899C6.32147 1.18115 6.07558 1.01556 5.80494 0.902577C5.53431 0.789597 5.24423 0.731445 4.95128 0.731445C4.65833 0.731445 4.36825 0.789597 4.09761 0.902577C3.82697 1.01556 3.58108 1.18115 3.37398 1.3899L1.76963 3.00514C0.83146 3.95032 0.233861 5.18438 0.0718607 6.51109C-0.0901395 7.83779 0.192759 9.18098 0.875573 10.3271L1.68057 11.6788C5.79149 18.5815 11.5939 24.3042 18.5313 28.298L18.6903 28.39C21.0602 29.7542 23.9881 29.3566 25.8856 27.4461L27.561 25.7581C27.7682 25.5495 27.9326 25.3018 28.0447 25.0291C28.1568 24.7564 28.2146 24.4642 28.2146 24.169C28.2146 23.8739 28.1568 23.5816 28.0447 23.309C27.9326 23.0363 27.7682 22.7886 27.561 22.5799L24.0253 19.0178C23.6811 18.6703 23.2334 18.4459 22.7507 18.3791C22.2679 18.3122 21.7767 18.4065 21.3522 18.6475Z" fill="white"/>
</svg>
