<svg width="22" height="21" viewBox="0 0 22 21" fill="none" xmlns="http://www.w3.org/2000/svg">
<path d="M16.6439 13.2171L14.8039 14.2042C14.5831 14.3226 14.3277 14.3689 14.0766 14.3361C13.8256 14.3033 13.5927 14.1931 13.4136 14.0224L7.27233 8.17418C7.09322 8.00352 6.97761 7.78178 6.94314 7.54274C6.90867 7.30371 6.95721 7.0605 7.08137 6.85018L8.11797 5.09797C8.30456 4.78261 8.37762 4.41775 8.32597 4.05914C8.27433 3.70052 8.10083 3.36786 7.83198 3.11197L5.07418 0.485762C4.91254 0.331761 4.72062 0.209597 4.50939 0.126248C4.29816 0.0428997 4.07175 0 3.84311 0C3.61446 0 3.38806 0.0428997 3.17682 0.126248C2.96559 0.209597 2.77368 0.331761 2.61204 0.485762L1.35985 1.67736C0.627609 2.37465 0.161186 3.28504 0.0347453 4.26379C-0.0916952 5.24253 0.129106 6.23344 0.662039 7.07894L1.29033 8.07613C4.49889 13.1684 9.02767 17.3902 14.4423 20.3365L14.5663 20.4044C16.416 21.4108 18.7013 21.1175 20.1823 19.7081L21.4899 18.4628C21.6516 18.3089 21.7799 18.1261 21.8674 17.925C21.955 17.7238 22 17.5082 22 17.2905C22 17.0728 21.955 16.8572 21.8674 16.656C21.7799 16.4549 21.6516 16.2721 21.4899 16.1182L18.7303 13.4903C18.4617 13.2339 18.1122 13.0684 17.7354 13.0191C17.3587 12.9698 16.9753 13.0393 16.6439 13.2171Z" fill="#6C6C6C"/>
</svg>
