<svg width="66" height="55" viewBox="0 0 66 55" fill="none" xmlns="http://www.w3.org/2000/svg">
<path d="M17.0958 54.4815C11.4666 54.4815 7.21494 52.7581 4.33095 49.3011C1.442 45.8493 0 41.0508 0 34.8907C0 28.7305 1.03566 24.0828 3.10698 20.033C5.1783 15.9782 7.73029 12.6016 10.7679 9.90344C13.8006 7.20022 16.8382 5.06477 19.8708 3.48706C22.9035 1.90934 25.4555 0.748662 27.5317 0L30.1977 5.62753C27.6804 6.67766 25.0144 8.10464 22.2048 9.90344C19.3901 11.7022 16.9868 14.2196 14.9898 17.4453C12.9928 20.6761 11.9919 25.138 11.9919 30.8409C13.1762 30.2429 14.2862 29.8661 15.3218 29.7153C16.3575 29.5696 17.4675 29.4892 18.6518 29.4892C22.9431 29.4892 26.0897 30.6901 28.0867 33.0919C30.0837 35.4936 31.0847 38.2722 31.0847 41.4226C31.0847 45.0252 29.8657 48.1053 27.4227 50.6528C24.9797 53.2052 21.5408 54.4815 17.1008 54.4815H17.0958ZM51.9317 54.4815C46.3025 54.4815 42.0508 52.7581 39.1668 49.3011C36.2779 45.8493 34.8359 41.0508 34.8359 34.8907C34.8359 28.7305 35.8715 24.0828 37.9428 20.033C40.0142 15.9782 42.5662 12.6016 45.6038 9.90344C48.6364 7.20022 51.674 5.06477 54.7067 3.48706C57.7393 1.90934 60.2913 0.748662 62.3676 0L65.0336 5.62753C62.5163 6.67766 59.8503 8.10464 57.0406 9.90344C54.226 11.7022 51.8227 14.2196 49.8257 17.4453C47.8287 20.6761 46.8277 25.138 46.8277 30.8409C48.012 30.2429 49.122 29.8661 50.1577 29.7153C51.1934 29.5696 52.3034 29.4892 53.4877 29.4892C57.779 29.4892 60.9256 30.6901 62.9226 33.0919C64.9196 35.4936 65.9206 38.2722 65.9206 41.4226C65.9206 45.0252 64.7015 48.1053 62.2586 50.6528C59.8156 53.2052 56.3766 54.4815 51.9317 54.4815Z" fill="#4CCFC3"/>
</svg>
