<svg width="51" height="42" viewBox="0 0 51 42" fill="none" xmlns="http://www.w3.org/2000/svg">
<path d="M13.2263 42C8.87123 42 5.5819 40.6714 3.35067 38.0065C1.11561 35.3454 0 31.6462 0 26.8974C0 22.1485 0.801248 18.5655 2.40374 15.4435C4.00624 12.3176 5.98061 9.71465 8.33068 7.6346C10.6769 5.55068 13.027 3.90445 15.3732 2.68819C17.7195 1.47192 19.6938 0.577147 21.3002 0L23.3627 4.33828C21.4152 5.14784 19.3526 6.2479 17.1789 7.6346C15.0014 9.0213 13.142 10.9619 11.597 13.4487C10.052 15.9393 9.27761 19.379 9.27761 23.7753C10.1939 23.3144 11.0526 23.0239 11.8539 22.9077C12.6551 22.7954 13.5139 22.7334 14.4301 22.7334C17.7501 22.7334 20.1845 23.6591 21.7295 25.5107C23.2745 27.3622 24.0489 29.5042 24.0489 31.9329C24.0489 34.7101 23.1058 37.0846 21.2158 39.0484C19.3258 41.0161 16.6652 42 13.2302 42H13.2263ZM40.1774 42C35.8223 42 32.533 40.6714 30.3017 38.0065C28.0667 35.3454 26.9511 31.6462 26.9511 26.8974C26.9511 22.1485 27.7523 18.5655 29.3548 15.4435C30.9573 12.3176 32.9317 9.71465 35.2817 7.6346C37.628 5.55068 39.9781 3.90445 42.3243 2.68819C44.6705 1.47192 46.6449 0.577147 48.2512 0L50.3138 4.33828C48.3662 5.14784 46.3037 6.2479 44.13 7.6346C41.9524 9.0213 40.0931 10.9619 38.5481 13.4487C37.0031 15.9393 36.2287 19.379 36.2287 23.7753C37.1449 23.3144 38.0037 23.0239 38.8049 22.9077C39.6062 22.7954 40.4649 22.7334 41.3812 22.7334C44.7012 22.7334 47.1356 23.6591 48.6806 25.5107C50.2256 27.3622 51 29.5042 51 31.9329C51 34.7101 50.0569 37.0846 48.1669 39.0484C46.2769 41.0161 43.6163 42 40.1774 42Z" fill="#DFDFDF"/>
</svg>
