<svg width="77" height="63" viewBox="0 0 77 63" fill="none" xmlns="http://www.w3.org/2000/svg">
<path d="M57.0308 -5.13368e-05C63.6062 -5.0762e-05 68.5724 1.99267 71.9411 5.98972C75.3156 9.98096 77 15.5292 77 22.6518C77 29.7745 75.7903 35.1484 73.3708 39.831C70.9514 44.5194 67.9705 48.4235 64.4223 51.5433C60.88 54.6689 57.3318 57.138 53.7894 58.9622C50.2471 60.7865 47.2662 62.1285 44.8409 62.9941L41.7269 56.4873C44.6673 55.2731 47.7813 53.6232 51.0632 51.5433C54.3509 49.4634 57.1582 46.5528 59.4908 42.823C61.8234 39.0874 62.9926 33.9284 62.9926 27.3344C61.6093 28.0258 60.3127 28.4615 59.103 28.6358C57.8933 28.8043 56.5967 28.8972 55.2133 28.8972C50.2008 28.8972 46.5253 27.5087 44.1927 24.7317C41.86 21.9547 40.6908 18.7419 40.6908 15.0993C40.6908 10.9337 42.1147 7.37241 44.9683 4.42692C47.8218 1.47561 51.8388 -5.17907e-05 57.025 -5.13373e-05L57.0308 -5.13368e-05ZM16.34 -5.48941e-05C22.9154 -5.43193e-05 27.8816 1.99266 31.2503 5.98972C34.6248 9.98095 36.3092 15.5292 36.3092 22.6518C36.3092 29.7745 35.0995 35.1484 32.68 39.831C30.2605 44.5194 27.2796 48.4235 23.7315 51.5433C20.1891 54.6689 16.641 57.138 13.0986 58.9622C9.55626 60.7865 6.57536 62.1285 4.15012 62.9941L1.03608 56.4873C3.97646 55.2731 7.0905 53.6231 10.3724 51.5433C13.6601 49.4634 16.4673 46.5528 18.8 42.823C21.1326 39.0874 22.3018 33.9284 22.3018 27.3344C20.9184 28.0258 19.6219 28.4615 18.4122 28.6358C17.2024 28.8043 15.9059 28.8972 14.5225 28.8972C9.50996 28.8972 5.83447 27.5087 3.50184 24.7317C1.16921 21.9547 3.86865e-06 18.7419 4.1871e-06 15.0993C4.55126e-06 10.9337 1.42389 7.37241 4.27746 4.42691C7.13102 1.4756 11.148 -5.5348e-05 16.34 -5.48941e-05Z" fill="#FE715F"/>
</svg>
