<svg width="77" height="63" viewBox="0 0 77 63" fill="none" xmlns="http://www.w3.org/2000/svg">
<path d="M19.9692 62.9942C13.3938 62.9942 8.42757 61.0015 5.05886 57.0044C1.68436 53.0132 0 47.465 0 40.3423C0 33.2197 1.20973 27.8457 3.62918 23.1631C6.04864 18.4747 9.02954 14.5706 12.5777 11.4508C16.12 8.32525 19.6682 5.85614 23.2106 4.03191C26.7529 2.20767 29.7338 0.86564 32.1591 0L35.2731 6.50682C32.3327 7.72104 29.2187 9.37099 25.9368 11.4508C22.6491 13.5307 19.8418 16.4414 17.5092 20.1712C15.1766 23.9068 14.0074 29.0658 14.0074 35.6597C15.3907 34.9684 16.6873 34.5326 17.897 34.3584C19.1067 34.1899 20.4033 34.0969 21.7867 34.0969C26.7992 34.0969 30.4747 35.4854 32.8073 38.2624C35.14 41.0395 36.3092 44.2522 36.3092 47.8949C36.3092 52.0604 34.8853 55.6217 32.0317 58.5672C29.1782 61.5185 25.1612 62.9942 19.975 62.9942H19.9692ZM60.66 62.9942C54.0846 62.9942 49.1184 61.0015 45.7497 57.0044C42.3752 53.0132 40.6908 47.465 40.6908 40.3423C40.6908 33.2197 41.9006 27.8457 44.32 23.1631C46.7395 18.4747 49.7204 14.5706 53.2685 11.4508C56.8109 8.32525 60.359 5.85614 63.9014 4.03191C67.4437 2.20767 70.4246 0.86564 72.8499 0L75.9639 6.50682C73.0235 7.72104 69.9095 9.37099 66.6276 11.4508C63.3399 13.5307 60.5327 16.4414 58.2 20.1712C55.8674 23.9068 54.6982 29.0658 54.6982 35.6597C56.0816 34.9684 57.3781 34.5326 58.5878 34.3584C59.7976 34.1899 61.0941 34.0969 62.4775 34.0969C67.49 34.0969 71.1655 35.4854 73.4982 38.2624C75.8308 41.0395 77 44.2522 77 47.8949C77 52.0604 75.5761 55.6217 72.7225 58.5672C69.869 61.5185 65.852 62.9942 60.66 62.9942Z" fill="#FE715F"/>
</svg>
