<svg width="57" height="57" viewBox="0 0 57 57" fill="none" xmlns="http://www.w3.org/2000/svg">
<path d="M12.901 38.6375C11.5961 38.6375 10.3205 38.2505 9.23548 37.5255C8.15048 36.8006 7.30482 35.7701 6.80545 34.5645C6.30608 33.359 6.17542 32.0324 6.43 30.7525C6.68458 29.4727 7.31296 28.2971 8.23567 27.3743C9.15839 26.4516 10.334 25.8232 11.6138 25.5687C12.8937 25.3141 14.2203 25.4448 15.4259 25.9441C16.6315 26.4435 17.6619 27.2891 18.3869 28.3741C19.1118 29.4591 19.4988 30.7348 19.4988 32.0397C19.4967 33.7889 18.801 35.4659 17.5641 36.7028C16.3272 37.9396 14.6502 38.6354 12.901 38.6375ZM12.901 27.7705C12.0567 27.7705 11.2313 28.0209 10.5292 28.49C9.82714 28.9591 9.27995 29.6259 8.95683 30.4059C8.6337 31.186 8.54916 32.0444 8.71389 32.8726C8.87861 33.7007 9.28521 34.4614 9.88226 35.0584C10.4793 35.6555 11.24 36.0621 12.0681 36.2268C12.8963 36.3915 13.7547 36.307 14.5347 35.9839C15.3148 35.6607 15.9816 35.1136 16.4507 34.4115C16.9198 33.7094 17.1702 32.884 17.1702 32.0397C17.1681 30.9081 16.7177 29.8234 15.9175 29.0232C15.1173 28.223 14.0326 27.7726 12.901 27.7705Z" fill="#6A398E"/>
<path d="M18.7225 47.952H7.07935C6.77056 47.952 6.47441 47.8293 6.25606 47.611C6.03771 47.3926 5.91504 47.0965 5.91504 46.7877V41.3542C5.91709 40.0167 6.44932 38.7346 7.39506 37.7889C8.3408 36.8431 9.62292 36.3109 10.9604 36.3088H14.8415C16.1789 36.3109 17.4611 36.8431 18.4068 37.7889C19.3525 38.7346 19.8848 40.0167 19.8868 41.3542V46.7877C19.8868 47.0965 19.7641 47.3926 19.5458 47.611C19.3274 47.8293 19.0313 47.952 18.7225 47.952ZM8.24367 45.6234H17.5582V41.3542C17.5582 40.6337 17.272 39.9427 16.7625 39.4332C16.253 38.9237 15.562 38.6375 14.8415 38.6375H10.9604C10.2399 38.6375 9.54887 38.9237 9.03938 39.4332C8.5299 39.9427 8.24367 40.6337 8.24367 41.3542V45.6234Z" fill="#6A398E"/>
<path d="M19.111 43.2948C18.8869 43.2953 18.6674 43.2311 18.4789 43.1099C18.2905 42.9887 18.1409 42.8157 18.0483 42.6117C17.9557 42.4076 17.924 42.1812 17.9569 41.9595C17.9898 41.7379 18.086 41.5304 18.2339 41.3621L29.1008 28.9427C29.3067 28.7101 29.5965 28.5688 29.9066 28.5499C30.2166 28.5309 30.5215 28.6359 30.7541 28.8418C30.9868 29.0477 31.1281 29.3375 31.147 29.6476C31.1659 29.9576 31.0609 30.2625 30.855 30.4951L19.9881 42.9145C19.8775 43.0368 19.742 43.1339 19.5907 43.1995C19.4394 43.2651 19.2758 43.2976 19.111 43.2948ZM49.3832 11.4702H11.3489C11.0401 11.4702 10.7439 11.3476 10.5256 11.1292C10.3072 10.9109 10.1846 10.6147 10.1846 10.3059C10.1846 9.99712 10.3072 9.70097 10.5256 9.48262C10.7439 9.26427 11.0401 9.1416 11.3489 9.1416H49.3832C49.692 9.1416 49.9881 9.26427 50.2065 9.48262C50.4248 9.70097 50.5475 9.99712 50.5475 10.3059C50.5475 10.6147 50.4248 10.9109 50.2065 11.1292C49.9881 11.3476 49.692 11.4702 49.3832 11.4702ZM49.3832 35.5327H33.0828C32.774 35.5327 32.4778 35.4101 32.2595 35.1917C32.0411 34.9734 31.9184 34.6772 31.9184 34.3684C31.9184 34.0596 32.0411 33.7635 32.2595 33.5451C32.4778 33.3268 32.774 33.2041 33.0828 33.2041H49.3832C49.692 33.2041 49.9881 33.3268 50.2065 33.5451C50.4248 33.7635 50.5475 34.0596 50.5475 34.3684C50.5475 34.6772 50.4248 34.9734 50.2065 35.1917C49.9881 35.4101 49.692 35.5327 49.3832 35.5327Z" fill="#6A398E"/>
<path d="M46.278 35.5327C45.9692 35.5327 45.673 35.4101 45.4547 35.1917C45.2363 34.9734 45.1137 34.6772 45.1137 34.3684V10.3059C45.1137 9.99712 45.2363 9.70097 45.4547 9.48262C45.673 9.26427 45.9692 9.1416 46.278 9.1416C46.5868 9.1416 46.8829 9.26427 47.1013 9.48262C47.3196 9.70097 47.4423 9.99712 47.4423 10.3059V34.3684C47.4423 34.6772 47.3196 34.9734 47.1013 35.1917C46.8829 35.4101 46.5868 35.5327 46.278 35.5327ZM14.4534 22.3372C14.1446 22.3372 13.8484 22.2145 13.6301 21.9962C13.4117 21.7778 13.2891 21.4817 13.2891 21.1729V10.3059C13.2891 9.99712 13.4117 9.70097 13.6301 9.48262C13.8484 9.26427 14.1446 9.1416 14.4534 9.1416C14.7622 9.1416 15.0583 9.26427 15.2767 9.48262C15.495 9.70097 15.6177 9.99712 15.6177 10.3059V21.1729C15.6177 21.4817 15.495 21.7778 15.2767 21.9962C15.0583 22.2145 14.7622 22.3372 14.4534 22.3372ZM31.53 18.4561H22.9917C22.6829 18.4561 22.3867 18.3335 22.1684 18.1151C21.95 17.8967 21.8274 17.6006 21.8274 17.2918C21.8274 16.983 21.95 16.6869 22.1684 16.4685C22.3867 16.2502 22.6829 16.1275 22.9917 16.1275H31.53C31.8388 16.1275 32.1349 16.2502 32.3533 16.4685C32.5716 16.6869 32.6943 16.983 32.6943 17.2918C32.6943 17.6006 32.5716 17.8967 32.3533 18.1151C32.1349 18.3335 31.8388 18.4561 31.53 18.4561ZM36.9635 24.6658H22.9917C22.6829 24.6658 22.3867 24.5431 22.1684 24.3248C21.95 24.1064 21.8274 23.8103 21.8274 23.5015C21.8274 23.1927 21.95 22.8965 22.1684 22.6782C22.3867 22.4598 22.6829 22.3372 22.9917 22.3372H36.9635C37.2723 22.3372 37.5684 22.4598 37.7868 22.6782C38.0051 22.8965 38.1278 23.1927 38.1278 23.5015C38.1278 23.8103 38.0051 24.1064 37.7868 24.3248C37.5684 24.5431 37.2723 24.6658 36.9635 24.6658Z" fill="#6A398E"/>
<rect x="1.5" y="1.5" width="54" height="54" rx="8.5" stroke="#6A398E" stroke-width="3"/>
</svg>
