<svg width="40" height="40" viewBox="0 0 40 40" fill="none" xmlns="http://www.w3.org/2000/svg">
<path fill-rule="evenodd" clip-rule="evenodd" d="M20 20C24.9116 20 28.8889 16.0227 28.8889 11.1111C28.8889 6.19956 24.9116 2.22222 20 2.22222C15.0884 2.22222 11.1111 6.19956 11.1111 11.1111C11.1111 16.0227 15.0884 20 20 20ZM31.1111 11.1111C31.1111 17.25 26.1389 22.2222 20 22.2222C13.8611 22.2222 8.88889 17.25 8.88889 11.1111C8.88889 4.97222 13.8611 0 20 0C26.1389 0 31.1111 4.97222 31.1111 11.1111ZM3.58164 31.3466C2.46709 32.2457 2.22222 32.9212 2.22222 33.3333V37.7778H37.7778V33.3333C37.7778 32.9212 37.5329 32.2457 36.4183 31.3466C35.3287 30.4674 33.7046 29.6299 31.7358 28.9056C27.7999 27.4574 23.0591 26.6667 20 26.6667C16.9409 26.6667 12.2001 27.4574 8.26422 28.9056C6.29544 29.6299 4.67133 30.4674 3.58164 31.3466ZM20 24.4444C13.325 24.4444 0 27.8163 0 33.3333V40H40V33.3333C40 27.8163 26.675 24.4444 20 24.4444Z" fill="#333333"/>
</svg>
