<svg width="57" height="57" viewBox="0 0 57 57" fill="none" xmlns="http://www.w3.org/2000/svg">
<rect x="1.5" y="1.5" width="54" height="54" rx="8.5" stroke="#6A398E" stroke-width="3"/>
<path d="M30.8834 29.8184C33.5191 29.8184 35.6557 31.9522 35.6557 34.5844L35.6533 36.9621C35.9805 42.7974 31.4801 45.7075 23.1345 45.7075C14.8158 45.7075 10.2168 42.8355 10.2168 37.0454V34.5844C10.2168 31.9522 12.3534 29.8184 14.9891 29.8184H30.8834ZM43.6115 29.8184C46.2472 29.8184 48.3838 31.9522 48.3838 34.5844L48.3815 36.2574C48.6691 41.4919 44.6926 44.1162 37.4241 44.1162C36.4374 44.1162 35.5098 44.0682 34.6436 43.9722C35.5684 43.1227 36.2572 42.1086 36.6961 40.9306L37.4241 40.939C43.1006 40.939 45.3701 39.4412 45.2023 36.3445V34.5844C45.2023 33.707 44.4901 32.9957 43.6115 32.9957L37.046 32.9957C36.724 31.746 36.0308 30.6451 35.0908 29.8171L43.6115 29.8184ZM30.8834 32.9957H14.9891C14.1106 32.9957 13.3983 33.707 13.3983 34.5844V37.0454C13.3983 40.6865 16.3506 42.5302 23.1345 42.5302C29.8914 42.5302 32.678 40.7283 32.4742 37.051V34.5844C32.4742 33.707 31.762 32.9957 30.8834 32.9957ZM22.943 10.7546C27.3365 10.7546 30.8981 14.3115 30.8981 18.6992C30.8981 23.0868 27.3365 26.6437 22.943 26.6437C18.5495 26.6437 14.9878 23.0868 14.9878 18.6992C14.9878 14.3115 18.5495 10.7546 22.943 10.7546ZM38.8507 13.9319C42.3649 13.9319 45.2138 16.777 45.2138 20.2865C45.2138 23.7961 42.3649 26.6411 38.8507 26.6411C35.3365 26.6411 32.4876 23.7961 32.4876 20.2865C32.4876 16.777 35.3365 13.9319 38.8507 13.9319ZM22.943 13.9319C20.3066 13.9319 18.1694 16.0663 18.1694 18.6992C18.1694 21.332 20.3066 23.4664 22.943 23.4664C25.5794 23.4664 27.7166 21.332 27.7166 18.6992C27.7166 16.0663 25.5794 13.9319 22.943 13.9319ZM38.8507 17.1092C37.0936 17.1092 35.6692 18.5318 35.6692 20.2865C35.6692 22.0413 37.0936 23.4638 38.8507 23.4638C40.6078 23.4638 42.0322 22.0413 42.0322 20.2865C42.0322 18.5318 40.6078 17.1092 38.8507 17.1092Z" fill="#6A398E"/>
</svg>
